<?xml version="1.0" encoding="utf-8"?>
<svg xmlns="http://www.w3.org/2000/svg" xmlns:xlink="http://www.w3.org/1999/xlink" width="600" height="400" viewBox="0 0 2400 1600">
<defs>
  <clipPath id="clip400">
    <rect x="0" y="0" width="2400" height="1600"/>
  </clipPath>
</defs>
<path clip-path="url(#clip400)" d="M0 1600 L2400 1600 L2400 8.88178e-14 L0 8.88178e-14  Z" fill="#ffffff" fill-rule="evenodd" fill-opacity="1"/>
<defs>
  <clipPath id="clip401">
    <rect x="480" y="0" width="1681" height="1600"/>
  </clipPath>
</defs>
<path clip-path="url(#clip400)" d="M220.716 1410.9 L2352.76 1410.9 L2352.76 123.472 L220.716 123.472  Z" fill="#ffffff" fill-rule="evenodd" fill-opacity="1"/>
<defs>
  <clipPath id="clip402">
    <rect x="220" y="123" width="2133" height="1288"/>
  </clipPath>
</defs>
<polyline clip-path="url(#clip402)" style="stroke:#000000; stroke-linecap:round; stroke-linejoin:round; stroke-width:2; stroke-opacity:0.05; fill:none" points="220.716,1410.9 220.716,123.472 "/>
<polyline clip-path="url(#clip402)" style="stroke:#000000; stroke-linecap:round; stroke-linejoin:round; stroke-width:2; stroke-opacity:0.05; fill:none" points="330.517,1410.9 330.517,123.472 "/>
<polyline clip-path="url(#clip402)" style="stroke:#000000; stroke-linecap:round; stroke-linejoin:round; stroke-width:2; stroke-opacity:0.05; fill:none" points="415.685,1410.9 415.685,123.472 "/>
<polyline clip-path="url(#clip402)" style="stroke:#000000; stroke-linecap:round; stroke-linejoin:round; stroke-width:2; stroke-opacity:0.05; fill:none" points="485.273,1410.9 485.273,123.472 "/>
<polyline clip-path="url(#clip402)" style="stroke:#000000; stroke-linecap:round; stroke-linejoin:round; stroke-width:2; stroke-opacity:0.05; fill:none" points="544.109,1410.9 544.109,123.472 "/>
<polyline clip-path="url(#clip402)" style="stroke:#000000; stroke-linecap:round; stroke-linejoin:round; stroke-width:2; stroke-opacity:0.05; fill:none" points="595.074,1410.9 595.074,123.472 "/>
<polyline clip-path="url(#clip402)" style="stroke:#000000; stroke-linecap:round; stroke-linejoin:round; stroke-width:2; stroke-opacity:0.05; fill:none" points="640.029,1410.9 640.029,123.472 "/>
<polyline clip-path="url(#clip402)" style="stroke:#000000; stroke-linecap:round; stroke-linejoin:round; stroke-width:2; stroke-opacity:0.05; fill:none" points="944.8,1410.9 944.8,123.472 "/>
<polyline clip-path="url(#clip402)" style="stroke:#000000; stroke-linecap:round; stroke-linejoin:round; stroke-width:2; stroke-opacity:0.05; fill:none" points="1099.56,1410.9 1099.56,123.472 "/>
<polyline clip-path="url(#clip402)" style="stroke:#000000; stroke-linecap:round; stroke-linejoin:round; stroke-width:2; stroke-opacity:0.05; fill:none" points="1209.36,1410.9 1209.36,123.472 "/>
<polyline clip-path="url(#clip402)" style="stroke:#000000; stroke-linecap:round; stroke-linejoin:round; stroke-width:2; stroke-opacity:0.05; fill:none" points="1294.53,1410.9 1294.53,123.472 "/>
<polyline clip-path="url(#clip402)" style="stroke:#000000; stroke-linecap:round; stroke-linejoin:round; stroke-width:2; stroke-opacity:0.05; fill:none" points="1364.11,1410.9 1364.11,123.472 "/>
<polyline clip-path="url(#clip402)" style="stroke:#000000; stroke-linecap:round; stroke-linejoin:round; stroke-width:2; stroke-opacity:0.05; fill:none" points="1422.95,1410.9 1422.95,123.472 "/>
<polyline clip-path="url(#clip402)" style="stroke:#000000; stroke-linecap:round; stroke-linejoin:round; stroke-width:2; stroke-opacity:0.05; fill:none" points="1473.92,1410.9 1473.92,123.472 "/>
<polyline clip-path="url(#clip402)" style="stroke:#000000; stroke-linecap:round; stroke-linejoin:round; stroke-width:2; stroke-opacity:0.05; fill:none" points="1518.87,1410.9 1518.87,123.472 "/>
<polyline clip-path="url(#clip402)" style="stroke:#000000; stroke-linecap:round; stroke-linejoin:round; stroke-width:2; stroke-opacity:0.05; fill:none" points="1823.64,1410.9 1823.64,123.472 "/>
<polyline clip-path="url(#clip402)" style="stroke:#000000; stroke-linecap:round; stroke-linejoin:round; stroke-width:2; stroke-opacity:0.05; fill:none" points="1978.4,1410.9 1978.4,123.472 "/>
<polyline clip-path="url(#clip402)" style="stroke:#000000; stroke-linecap:round; stroke-linejoin:round; stroke-width:2; stroke-opacity:0.05; fill:none" points="2088.2,1410.9 2088.2,123.472 "/>
<polyline clip-path="url(#clip402)" style="stroke:#000000; stroke-linecap:round; stroke-linejoin:round; stroke-width:2; stroke-opacity:0.05; fill:none" points="2173.37,1410.9 2173.37,123.472 "/>
<polyline clip-path="url(#clip402)" style="stroke:#000000; stroke-linecap:round; stroke-linejoin:round; stroke-width:2; stroke-opacity:0.05; fill:none" points="2242.95,1410.9 2242.95,123.472 "/>
<polyline clip-path="url(#clip402)" style="stroke:#000000; stroke-linecap:round; stroke-linejoin:round; stroke-width:2; stroke-opacity:0.05; fill:none" points="2301.79,1410.9 2301.79,123.472 "/>
<polyline clip-path="url(#clip402)" style="stroke:#000000; stroke-linecap:round; stroke-linejoin:round; stroke-width:2; stroke-opacity:0.05; fill:none" points="2352.76,1410.9 2352.76,123.472 "/>
<polyline clip-path="url(#clip402)" style="stroke:#000000; stroke-linecap:round; stroke-linejoin:round; stroke-width:2; stroke-opacity:0.05; fill:none" points="220.716,1410.9 2352.76,1410.9 "/>
<polyline clip-path="url(#clip402)" style="stroke:#000000; stroke-linecap:round; stroke-linejoin:round; stroke-width:2; stroke-opacity:0.05; fill:none" points="220.716,1335.2 2352.76,1335.2 "/>
<polyline clip-path="url(#clip402)" style="stroke:#000000; stroke-linecap:round; stroke-linejoin:round; stroke-width:2; stroke-opacity:0.05; fill:none" points="220.716,1276.49 2352.76,1276.49 "/>
<polyline clip-path="url(#clip402)" style="stroke:#000000; stroke-linecap:round; stroke-linejoin:round; stroke-width:2; stroke-opacity:0.05; fill:none" points="220.716,1228.51 2352.76,1228.51 "/>
<polyline clip-path="url(#clip402)" style="stroke:#000000; stroke-linecap:round; stroke-linejoin:round; stroke-width:2; stroke-opacity:0.05; fill:none" points="220.716,1187.95 2352.76,1187.95 "/>
<polyline clip-path="url(#clip402)" style="stroke:#000000; stroke-linecap:round; stroke-linejoin:round; stroke-width:2; stroke-opacity:0.05; fill:none" points="220.716,1152.82 2352.76,1152.82 "/>
<polyline clip-path="url(#clip402)" style="stroke:#000000; stroke-linecap:round; stroke-linejoin:round; stroke-width:2; stroke-opacity:0.05; fill:none" points="220.716,1121.83 2352.76,1121.83 "/>
<polyline clip-path="url(#clip402)" style="stroke:#000000; stroke-linecap:round; stroke-linejoin:round; stroke-width:2; stroke-opacity:0.05; fill:none" points="220.716,911.72 2352.76,911.72 "/>
<polyline clip-path="url(#clip402)" style="stroke:#000000; stroke-linecap:round; stroke-linejoin:round; stroke-width:2; stroke-opacity:0.05; fill:none" points="220.716,805.032 2352.76,805.032 "/>
<polyline clip-path="url(#clip402)" style="stroke:#000000; stroke-linecap:round; stroke-linejoin:round; stroke-width:2; stroke-opacity:0.05; fill:none" points="220.716,729.336 2352.76,729.336 "/>
<polyline clip-path="url(#clip402)" style="stroke:#000000; stroke-linecap:round; stroke-linejoin:round; stroke-width:2; stroke-opacity:0.05; fill:none" points="220.716,670.622 2352.76,670.622 "/>
<polyline clip-path="url(#clip402)" style="stroke:#000000; stroke-linecap:round; stroke-linejoin:round; stroke-width:2; stroke-opacity:0.05; fill:none" points="220.716,622.649 2352.76,622.649 "/>
<polyline clip-path="url(#clip402)" style="stroke:#000000; stroke-linecap:round; stroke-linejoin:round; stroke-width:2; stroke-opacity:0.05; fill:none" points="220.716,582.088 2352.76,582.088 "/>
<polyline clip-path="url(#clip402)" style="stroke:#000000; stroke-linecap:round; stroke-linejoin:round; stroke-width:2; stroke-opacity:0.05; fill:none" points="220.716,546.953 2352.76,546.953 "/>
<polyline clip-path="url(#clip402)" style="stroke:#000000; stroke-linecap:round; stroke-linejoin:round; stroke-width:2; stroke-opacity:0.05; fill:none" points="220.716,515.962 2352.76,515.962 "/>
<polyline clip-path="url(#clip402)" style="stroke:#000000; stroke-linecap:round; stroke-linejoin:round; stroke-width:2; stroke-opacity:0.05; fill:none" points="220.716,305.855 2352.76,305.855 "/>
<polyline clip-path="url(#clip402)" style="stroke:#000000; stroke-linecap:round; stroke-linejoin:round; stroke-width:2; stroke-opacity:0.05; fill:none" points="220.716,199.168 2352.76,199.168 "/>
<polyline clip-path="url(#clip402)" style="stroke:#000000; stroke-linecap:round; stroke-linejoin:round; stroke-width:2; stroke-opacity:0.05; fill:none" points="220.716,123.472 2352.76,123.472 "/>
<polyline clip-path="url(#clip402)" style="stroke:#000000; stroke-linecap:round; stroke-linejoin:round; stroke-width:2; stroke-opacity:0.1; fill:none" points="680.243,1410.9 680.243,123.472 "/>
<polyline clip-path="url(#clip402)" style="stroke:#000000; stroke-linecap:round; stroke-linejoin:round; stroke-width:2; stroke-opacity:0.1; fill:none" points="1559.08,1410.9 1559.08,123.472 "/>
<polyline clip-path="url(#clip402)" style="stroke:#000000; stroke-linecap:round; stroke-linejoin:round; stroke-width:2; stroke-opacity:0.1; fill:none" points="220.716,1094.1 2352.76,1094.1 "/>
<polyline clip-path="url(#clip402)" style="stroke:#000000; stroke-linecap:round; stroke-linejoin:round; stroke-width:2; stroke-opacity:0.1; fill:none" points="220.716,488.239 2352.76,488.239 "/>
<polyline clip-path="url(#clip400)" style="stroke:#000000; stroke-linecap:round; stroke-linejoin:round; stroke-width:4; stroke-opacity:1; fill:none" points="220.716,1410.9 2352.76,1410.9 "/>
<polyline clip-path="url(#clip400)" style="stroke:#000000; stroke-linecap:round; stroke-linejoin:round; stroke-width:4; stroke-opacity:1; fill:none" points="680.243,1410.9 680.243,1392 "/>
<polyline clip-path="url(#clip400)" style="stroke:#000000; stroke-linecap:round; stroke-linejoin:round; stroke-width:4; stroke-opacity:1; fill:none" points="1559.08,1410.9 1559.08,1392 "/>
<polyline clip-path="url(#clip400)" style="stroke:#000000; stroke-linecap:round; stroke-linejoin:round; stroke-width:4; stroke-opacity:1; fill:none" points="220.716,1410.9 220.716,1401.45 "/>
<polyline clip-path="url(#clip400)" style="stroke:#000000; stroke-linecap:round; stroke-linejoin:round; stroke-width:4; stroke-opacity:1; fill:none" points="330.517,1410.9 330.517,1401.45 "/>
<polyline clip-path="url(#clip400)" style="stroke:#000000; stroke-linecap:round; stroke-linejoin:round; stroke-width:4; stroke-opacity:1; fill:none" points="415.685,1410.9 415.685,1401.45 "/>
<polyline clip-path="url(#clip400)" style="stroke:#000000; stroke-linecap:round; stroke-linejoin:round; stroke-width:4; stroke-opacity:1; fill:none" points="485.273,1410.9 485.273,1401.45 "/>
<polyline clip-path="url(#clip400)" style="stroke:#000000; stroke-linecap:round; stroke-linejoin:round; stroke-width:4; stroke-opacity:1; fill:none" points="544.109,1410.9 544.109,1401.45 "/>
<polyline clip-path="url(#clip400)" style="stroke:#000000; stroke-linecap:round; stroke-linejoin:round; stroke-width:4; stroke-opacity:1; fill:none" points="595.074,1410.9 595.074,1401.45 "/>
<polyline clip-path="url(#clip400)" style="stroke:#000000; stroke-linecap:round; stroke-linejoin:round; stroke-width:4; stroke-opacity:1; fill:none" points="640.029,1410.9 640.029,1401.45 "/>
<polyline clip-path="url(#clip400)" style="stroke:#000000; stroke-linecap:round; stroke-linejoin:round; stroke-width:4; stroke-opacity:1; fill:none" points="944.8,1410.9 944.8,1401.45 "/>
<polyline clip-path="url(#clip400)" style="stroke:#000000; stroke-linecap:round; stroke-linejoin:round; stroke-width:4; stroke-opacity:1; fill:none" points="1099.56,1410.9 1099.56,1401.45 "/>
<polyline clip-path="url(#clip400)" style="stroke:#000000; stroke-linecap:round; stroke-linejoin:round; stroke-width:4; stroke-opacity:1; fill:none" points="1209.36,1410.9 1209.36,1401.45 "/>
<polyline clip-path="url(#clip400)" style="stroke:#000000; stroke-linecap:round; stroke-linejoin:round; stroke-width:4; stroke-opacity:1; fill:none" points="1294.53,1410.9 1294.53,1401.45 "/>
<polyline clip-path="url(#clip400)" style="stroke:#000000; stroke-linecap:round; stroke-linejoin:round; stroke-width:4; stroke-opacity:1; fill:none" points="1364.11,1410.9 1364.11,1401.45 "/>
<polyline clip-path="url(#clip400)" style="stroke:#000000; stroke-linecap:round; stroke-linejoin:round; stroke-width:4; stroke-opacity:1; fill:none" points="1422.95,1410.9 1422.95,1401.45 "/>
<polyline clip-path="url(#clip400)" style="stroke:#000000; stroke-linecap:round; stroke-linejoin:round; stroke-width:4; stroke-opacity:1; fill:none" points="1473.92,1410.9 1473.92,1401.45 "/>
<polyline clip-path="url(#clip400)" style="stroke:#000000; stroke-linecap:round; stroke-linejoin:round; stroke-width:4; stroke-opacity:1; fill:none" points="1518.87,1410.9 1518.87,1401.45 "/>
<polyline clip-path="url(#clip400)" style="stroke:#000000; stroke-linecap:round; stroke-linejoin:round; stroke-width:4; stroke-opacity:1; fill:none" points="1823.64,1410.9 1823.64,1401.45 "/>
<polyline clip-path="url(#clip400)" style="stroke:#000000; stroke-linecap:round; stroke-linejoin:round; stroke-width:4; stroke-opacity:1; fill:none" points="1978.4,1410.9 1978.4,1401.45 "/>
<polyline clip-path="url(#clip400)" style="stroke:#000000; stroke-linecap:round; stroke-linejoin:round; stroke-width:4; stroke-opacity:1; fill:none" points="2088.2,1410.9 2088.2,1401.45 "/>
<polyline clip-path="url(#clip400)" style="stroke:#000000; stroke-linecap:round; stroke-linejoin:round; stroke-width:4; stroke-opacity:1; fill:none" points="2173.37,1410.9 2173.37,1401.45 "/>
<polyline clip-path="url(#clip400)" style="stroke:#000000; stroke-linecap:round; stroke-linejoin:round; stroke-width:4; stroke-opacity:1; fill:none" points="2242.95,1410.9 2242.95,1401.45 "/>
<polyline clip-path="url(#clip400)" style="stroke:#000000; stroke-linecap:round; stroke-linejoin:round; stroke-width:4; stroke-opacity:1; fill:none" points="2301.79,1410.9 2301.79,1401.45 "/>
<polyline clip-path="url(#clip400)" style="stroke:#000000; stroke-linecap:round; stroke-linejoin:round; stroke-width:4; stroke-opacity:1; fill:none" points="2352.76,1410.9 2352.76,1401.45 "/>
<path clip-path="url(#clip400)" d="M646.015 1485.02 L653.654 1485.02 L653.654 1458.66 L645.344 1460.32 L645.344 1456.06 L653.608 1454.4 L658.284 1454.4 L658.284 1485.02 L665.923 1485.02 L665.923 1488.96 L646.015 1488.96 L646.015 1485.02 Z" fill="#000000" fill-rule="nonzero" fill-opacity="1" /><path clip-path="url(#clip400)" d="M685.367 1457.48 Q681.756 1457.48 679.927 1461.04 Q678.122 1464.58 678.122 1471.71 Q678.122 1478.82 679.927 1482.38 Q681.756 1485.92 685.367 1485.92 Q689.001 1485.92 690.807 1482.38 Q692.636 1478.82 692.636 1471.71 Q692.636 1464.58 690.807 1461.04 Q689.001 1457.48 685.367 1457.48 M685.367 1453.77 Q691.177 1453.77 694.233 1458.38 Q697.311 1462.96 697.311 1471.71 Q697.311 1480.44 694.233 1485.04 Q691.177 1489.63 685.367 1489.63 Q679.557 1489.63 676.478 1485.04 Q673.423 1480.44 673.423 1471.71 Q673.423 1462.96 676.478 1458.38 Q679.557 1453.77 685.367 1453.77 Z" fill="#000000" fill-rule="nonzero" fill-opacity="1" /><path clip-path="url(#clip400)" d="M701.882 1458.35 L715.141 1458.35 L715.141 1461.55 L697.311 1461.55 L697.311 1458.35 Q699.474 1456.11 703.198 1452.35 Q706.941 1448.57 707.9 1447.48 Q709.725 1445.43 710.439 1444.02 Q711.173 1442.59 711.173 1441.22 Q711.173 1438.98 709.593 1437.57 Q708.032 1436.16 705.512 1436.16 Q703.725 1436.16 701.731 1436.78 Q699.756 1437.4 697.5 1438.66 L697.5 1434.82 Q699.794 1433.9 701.788 1433.43 Q703.781 1432.96 705.436 1432.96 Q709.8 1432.96 712.395 1435.14 Q714.991 1437.32 714.991 1440.97 Q714.991 1442.7 714.333 1444.26 Q713.693 1445.8 711.982 1447.91 Q711.511 1448.46 708.991 1451.07 Q706.471 1453.67 701.882 1458.35 Z" fill="#000000" fill-rule="nonzero" fill-opacity="1" /><path clip-path="url(#clip400)" d="M1524.53 1485.02 L1532.17 1485.02 L1532.17 1458.66 L1523.86 1460.32 L1523.86 1456.06 L1532.12 1454.4 L1536.8 1454.4 L1536.8 1485.02 L1544.43 1485.02 L1544.43 1488.96 L1524.53 1488.96 L1524.53 1485.02 Z" fill="#000000" fill-rule="nonzero" fill-opacity="1" /><path clip-path="url(#clip400)" d="M1563.88 1457.48 Q1560.27 1457.48 1558.44 1461.04 Q1556.63 1464.58 1556.63 1471.71 Q1556.63 1478.82 1558.44 1482.38 Q1560.27 1485.92 1563.88 1485.92 Q1567.51 1485.92 1569.32 1482.38 Q1571.15 1478.82 1571.15 1471.71 Q1571.15 1464.58 1569.32 1461.04 Q1567.51 1457.48 1563.88 1457.48 M1563.88 1453.77 Q1569.69 1453.77 1572.74 1458.38 Q1575.82 1462.96 1575.82 1471.71 Q1575.82 1480.44 1572.74 1485.04 Q1569.69 1489.63 1563.88 1489.63 Q1558.07 1489.63 1554.99 1485.04 Q1551.93 1480.44 1551.93 1471.71 Q1551.93 1462.96 1554.99 1458.38 Q1558.07 1453.77 1563.88 1453.77 Z" fill="#000000" fill-rule="nonzero" fill-opacity="1" /><path clip-path="url(#clip400)" d="M1588.52 1446.41 Q1591.25 1446.99 1592.77 1448.83 Q1594.31 1450.68 1594.31 1453.38 Q1594.31 1457.54 1591.45 1459.82 Q1588.59 1462.09 1583.33 1462.09 Q1581.56 1462.09 1579.68 1461.73 Q1577.82 1461.4 1575.82 1460.7 L1575.82 1457.03 Q1577.4 1457.95 1579.28 1458.42 Q1581.16 1458.89 1583.21 1458.89 Q1586.79 1458.89 1588.65 1457.48 Q1590.53 1456.07 1590.53 1453.38 Q1590.53 1450.9 1588.78 1449.51 Q1587.05 1448.1 1583.95 1448.1 L1580.68 1448.1 L1580.68 1444.98 L1584.1 1444.98 Q1586.9 1444.98 1588.39 1443.87 Q1589.87 1442.74 1589.87 1440.63 Q1589.87 1438.47 1588.33 1437.32 Q1586.81 1436.16 1583.95 1436.16 Q1582.39 1436.16 1580.6 1436.49 Q1578.81 1436.83 1576.67 1437.55 L1576.67 1434.16 Q1578.83 1433.56 1580.71 1433.26 Q1582.61 1432.96 1584.29 1432.96 Q1588.61 1432.96 1591.13 1434.93 Q1593.65 1436.89 1593.65 1440.24 Q1593.65 1442.57 1592.32 1444.19 Q1590.98 1445.79 1588.52 1446.41 Z" fill="#000000" fill-rule="nonzero" fill-opacity="1" /><path clip-path="url(#clip400)" d="M961.337 1528.23 L961.337 1534.5 Q957.676 1532.74 954.43 1531.89 Q951.183 1531.03 948.16 1531.03 Q942.908 1531.03 940.043 1533.06 Q937.211 1535.1 937.211 1538.86 Q937.211 1542.01 939.089 1543.63 Q940.998 1545.22 946.282 1546.21 L950.165 1547 Q957.358 1548.37 960.764 1551.84 Q964.201 1555.28 964.201 1561.07 Q964.201 1567.98 959.554 1571.54 Q954.939 1575.11 945.995 1575.11 Q942.622 1575.11 938.802 1574.34 Q935.015 1573.58 930.94 1572.08 L930.94 1565.46 Q934.855 1567.66 938.611 1568.77 Q942.367 1569.89 945.995 1569.89 Q951.502 1569.89 954.494 1567.72 Q957.485 1565.56 957.485 1561.55 Q957.485 1558.05 955.321 1556.08 Q953.189 1554.1 948.287 1553.11 L944.372 1552.35 Q937.179 1550.92 933.964 1547.86 Q930.749 1544.81 930.749 1539.37 Q930.749 1533.06 935.174 1529.43 Q939.63 1525.81 947.428 1525.81 Q950.77 1525.81 954.239 1526.41 Q957.708 1527.02 961.337 1528.23 Z" fill="#000000" fill-rule="nonzero" fill-opacity="1" /><path clip-path="url(#clip400)" d="M979.638 1568.84 L979.638 1587.74 L973.75 1587.74 L973.75 1538.54 L979.638 1538.54 L979.638 1543.95 Q981.484 1540.77 984.285 1539.24 Q987.118 1537.68 991.033 1537.68 Q997.526 1537.68 1001.57 1542.83 Q1005.64 1547.99 1005.64 1556.39 Q1005.64 1564.8 1001.57 1569.95 Q997.526 1575.11 991.033 1575.11 Q987.118 1575.11 984.285 1573.58 Q981.484 1572.02 979.638 1568.84 M999.563 1556.39 Q999.563 1549.93 996.889 1546.27 Q994.247 1542.58 989.6 1542.58 Q984.953 1542.58 982.28 1546.27 Q979.638 1549.93 979.638 1556.39 Q979.638 1562.85 982.28 1566.55 Q984.953 1570.21 989.6 1570.21 Q994.247 1570.21 996.889 1566.55 Q999.563 1562.85 999.563 1556.39 Z" fill="#000000" fill-rule="nonzero" fill-opacity="1" /><path clip-path="url(#clip400)" d="M1045.84 1554.9 L1045.84 1557.76 L1018.91 1557.76 Q1019.3 1563.81 1022.54 1566.99 Q1025.82 1570.14 1031.65 1570.14 Q1035.02 1570.14 1038.17 1569.32 Q1041.35 1568.49 1044.47 1566.83 L1044.47 1572.37 Q1041.32 1573.71 1038.01 1574.41 Q1034.7 1575.11 1031.3 1575.11 Q1022.77 1575.11 1017.77 1570.14 Q1012.8 1565.18 1012.8 1556.71 Q1012.8 1547.96 1017.51 1542.83 Q1022.26 1537.68 1030.28 1537.68 Q1037.47 1537.68 1041.64 1542.33 Q1045.84 1546.94 1045.84 1554.9 M1039.99 1553.18 Q1039.92 1548.37 1037.28 1545.51 Q1034.67 1542.64 1030.34 1542.64 Q1025.44 1542.64 1022.48 1545.41 Q1019.55 1548.18 1019.11 1553.21 L1039.99 1553.18 Z" fill="#000000" fill-rule="nonzero" fill-opacity="1" /><path clip-path="url(#clip400)" d="M1081.11 1539.91 L1081.11 1545.38 Q1078.62 1544.01 1076.11 1543.34 Q1073.63 1542.64 1071.08 1542.64 Q1065.38 1542.64 1062.23 1546.27 Q1059.08 1549.87 1059.08 1556.39 Q1059.08 1562.92 1062.23 1566.55 Q1065.38 1570.14 1071.08 1570.14 Q1073.63 1570.14 1076.11 1569.47 Q1078.62 1568.77 1081.11 1567.41 L1081.11 1572.82 Q1078.66 1573.96 1076.01 1574.54 Q1073.4 1575.11 1070.44 1575.11 Q1062.39 1575.11 1057.65 1570.05 Q1052.91 1564.99 1052.91 1556.39 Q1052.91 1547.67 1057.68 1542.68 Q1062.49 1537.68 1070.83 1537.68 Q1073.53 1537.68 1076.11 1538.25 Q1078.69 1538.79 1081.11 1539.91 Z" fill="#000000" fill-rule="nonzero" fill-opacity="1" /><path clip-path="url(#clip400)" d="M1097.09 1528.42 L1097.09 1538.54 L1109.15 1538.54 L1109.15 1543.09 L1097.09 1543.09 L1097.09 1562.44 Q1097.09 1566.8 1098.26 1568.04 Q1099.47 1569.28 1103.13 1569.28 L1109.15 1569.28 L1109.15 1574.19 L1103.13 1574.19 Q1096.35 1574.19 1093.78 1571.67 Q1091.2 1569.12 1091.2 1562.44 L1091.2 1543.09 L1086.9 1543.09 L1086.9 1538.54 L1091.2 1538.54 L1091.2 1528.42 L1097.09 1528.42 Z" fill="#000000" fill-rule="nonzero" fill-opacity="1" /><path clip-path="url(#clip400)" d="M1137.51 1544.01 Q1136.52 1543.44 1135.34 1543.18 Q1134.2 1542.9 1132.8 1542.9 Q1127.83 1542.9 1125.16 1546.14 Q1122.52 1549.36 1122.52 1555.41 L1122.52 1574.19 L1116.63 1574.19 L1116.63 1538.54 L1122.52 1538.54 L1122.52 1544.08 Q1124.36 1540.83 1127.32 1539.27 Q1130.28 1537.68 1134.52 1537.68 Q1135.12 1537.68 1135.85 1537.77 Q1136.58 1537.84 1137.48 1538 L1137.51 1544.01 Z" fill="#000000" fill-rule="nonzero" fill-opacity="1" /><path clip-path="url(#clip400)" d="M1159.85 1556.27 Q1152.75 1556.27 1150.02 1557.89 Q1147.28 1559.51 1147.28 1563.43 Q1147.28 1566.55 1149.32 1568.39 Q1151.38 1570.21 1154.92 1570.21 Q1159.79 1570.21 1162.72 1566.77 Q1165.68 1563.3 1165.68 1557.57 L1165.68 1556.27 L1159.85 1556.27 M1171.53 1553.85 L1171.53 1574.19 L1165.68 1574.19 L1165.68 1568.77 Q1163.67 1572.02 1160.68 1573.58 Q1157.69 1575.11 1153.36 1575.11 Q1147.88 1575.11 1144.64 1572.05 Q1141.42 1568.97 1141.42 1563.81 Q1141.42 1557.79 1145.43 1554.74 Q1149.48 1551.68 1157.46 1551.68 L1165.68 1551.68 L1165.68 1551.11 Q1165.68 1547.07 1163 1544.87 Q1160.36 1542.64 1155.55 1542.64 Q1152.5 1542.64 1149.6 1543.38 Q1146.71 1544.11 1144.03 1545.57 L1144.03 1540.16 Q1147.25 1538.92 1150.27 1538.31 Q1153.29 1537.68 1156.16 1537.68 Q1163.89 1537.68 1167.71 1541.69 Q1171.53 1545.7 1171.53 1553.85 Z" fill="#000000" fill-rule="nonzero" fill-opacity="1" /><path clip-path="url(#clip400)" d="M1183.6 1524.66 L1189.45 1524.66 L1189.45 1574.19 L1183.6 1574.19 L1183.6 1524.66 Z" fill="#000000" fill-rule="nonzero" fill-opacity="1" /><path clip-path="url(#clip400)" d="M1258.27 1530.33 L1258.27 1537.11 Q1255.02 1534.08 1251.33 1532.59 Q1247.67 1531.09 1243.53 1531.09 Q1235.38 1531.09 1231.05 1536.09 Q1226.72 1541.05 1226.72 1550.47 Q1226.72 1559.86 1231.05 1564.86 Q1235.38 1569.82 1243.53 1569.82 Q1247.67 1569.82 1251.33 1568.33 Q1255.02 1566.83 1258.27 1563.81 L1258.27 1570.53 Q1254.89 1572.82 1251.1 1573.96 Q1247.35 1575.11 1243.15 1575.11 Q1232.36 1575.11 1226.15 1568.52 Q1219.94 1561.9 1219.94 1550.47 Q1219.94 1539.01 1226.15 1532.43 Q1232.36 1525.81 1243.15 1525.81 Q1247.41 1525.81 1251.17 1526.95 Q1254.95 1528.07 1258.27 1530.33 Z" fill="#000000" fill-rule="nonzero" fill-opacity="1" /><path clip-path="url(#clip400)" d="M1298.43 1554.9 L1298.43 1557.76 L1271.51 1557.76 Q1271.89 1563.81 1275.13 1566.99 Q1278.41 1570.14 1284.24 1570.14 Q1287.61 1570.14 1290.76 1569.32 Q1293.94 1568.49 1297.06 1566.83 L1297.06 1572.37 Q1293.91 1573.71 1290.6 1574.41 Q1287.29 1575.11 1283.89 1575.11 Q1275.36 1575.11 1270.36 1570.14 Q1265.39 1565.18 1265.39 1556.71 Q1265.39 1547.96 1270.11 1542.83 Q1274.85 1537.68 1282.87 1537.68 Q1290.06 1537.68 1294.23 1542.33 Q1298.43 1546.94 1298.43 1554.9 M1292.58 1553.18 Q1292.51 1548.37 1289.87 1545.51 Q1287.26 1542.64 1282.93 1542.64 Q1278.03 1542.64 1275.07 1545.41 Q1272.14 1548.18 1271.7 1553.21 L1292.58 1553.18 Z" fill="#000000" fill-rule="nonzero" fill-opacity="1" /><path clip-path="url(#clip400)" d="M1337.68 1552.67 L1337.68 1574.19 L1331.82 1574.19 L1331.82 1552.86 Q1331.82 1547.8 1329.85 1545.29 Q1327.87 1542.77 1323.93 1542.77 Q1319.18 1542.77 1316.45 1545.79 Q1313.71 1548.82 1313.71 1554.04 L1313.71 1574.19 L1307.82 1574.19 L1307.82 1538.54 L1313.71 1538.54 L1313.71 1544.08 Q1315.81 1540.86 1318.64 1539.27 Q1321.51 1537.68 1325.23 1537.68 Q1331.38 1537.68 1334.53 1541.5 Q1337.68 1545.29 1337.68 1552.67 Z" fill="#000000" fill-rule="nonzero" fill-opacity="1" /><path clip-path="url(#clip400)" d="M1355.15 1528.42 L1355.15 1538.54 L1367.21 1538.54 L1367.21 1543.09 L1355.15 1543.09 L1355.15 1562.44 Q1355.15 1566.8 1356.33 1568.04 Q1357.54 1569.28 1361.2 1569.28 L1367.21 1569.28 L1367.21 1574.19 L1361.2 1574.19 Q1354.42 1574.19 1351.84 1571.67 Q1349.26 1569.12 1349.26 1562.44 L1349.26 1543.09 L1344.97 1543.09 L1344.97 1538.54 L1349.26 1538.54 L1349.26 1528.42 L1355.15 1528.42 Z" fill="#000000" fill-rule="nonzero" fill-opacity="1" /><path clip-path="url(#clip400)" d="M1395.57 1544.01 Q1394.59 1543.44 1393.41 1543.18 Q1392.26 1542.9 1390.86 1542.9 Q1385.9 1542.9 1383.22 1546.14 Q1380.58 1549.36 1380.58 1555.41 L1380.58 1574.19 L1374.69 1574.19 L1374.69 1538.54 L1380.58 1538.54 L1380.58 1544.08 Q1382.43 1540.83 1385.39 1539.27 Q1388.35 1537.68 1392.58 1537.68 Q1393.19 1537.68 1393.92 1537.77 Q1394.65 1537.84 1395.54 1538 L1395.57 1544.01 Z" fill="#000000" fill-rule="nonzero" fill-opacity="1" /><path clip-path="url(#clip400)" d="M1414.1 1542.64 Q1409.39 1542.64 1406.65 1546.34 Q1403.91 1550 1403.91 1556.39 Q1403.91 1562.79 1406.62 1566.48 Q1409.36 1570.14 1414.1 1570.14 Q1418.78 1570.14 1421.51 1566.45 Q1424.25 1562.76 1424.25 1556.39 Q1424.25 1550.06 1421.51 1546.37 Q1418.78 1542.64 1414.1 1542.64 M1414.1 1537.68 Q1421.74 1537.68 1426.1 1542.64 Q1430.46 1547.61 1430.46 1556.39 Q1430.46 1565.15 1426.1 1570.14 Q1421.74 1575.11 1414.1 1575.11 Q1406.43 1575.11 1402.07 1570.14 Q1397.74 1565.15 1397.74 1556.39 Q1397.74 1547.61 1402.07 1542.64 Q1406.43 1537.68 1414.1 1537.68 Z" fill="#000000" fill-rule="nonzero" fill-opacity="1" /><path clip-path="url(#clip400)" d="M1440.17 1538.54 L1446.02 1538.54 L1446.02 1574.19 L1440.17 1574.19 L1440.17 1538.54 M1440.17 1524.66 L1446.02 1524.66 L1446.02 1532.08 L1440.17 1532.08 L1440.17 1524.66 Z" fill="#000000" fill-rule="nonzero" fill-opacity="1" /><path clip-path="url(#clip400)" d="M1481.73 1543.95 L1481.73 1524.66 L1487.59 1524.66 L1487.59 1574.19 L1481.73 1574.19 L1481.73 1568.84 Q1479.89 1572.02 1477.05 1573.58 Q1474.25 1575.11 1470.31 1575.11 Q1463.85 1575.11 1459.77 1569.95 Q1455.73 1564.8 1455.73 1556.39 Q1455.73 1547.99 1459.77 1542.83 Q1463.85 1537.68 1470.31 1537.68 Q1474.25 1537.68 1477.05 1539.24 Q1479.89 1540.77 1481.73 1543.95 M1461.78 1556.39 Q1461.78 1562.85 1464.42 1566.55 Q1467.09 1570.21 1471.74 1570.21 Q1476.39 1570.21 1479.06 1566.55 Q1481.73 1562.85 1481.73 1556.39 Q1481.73 1549.93 1479.06 1546.27 Q1476.39 1542.58 1471.74 1542.58 Q1467.09 1542.58 1464.42 1546.27 Q1461.78 1549.93 1461.78 1556.39 Z" fill="#000000" fill-rule="nonzero" fill-opacity="1" /><path clip-path="url(#clip400)" d="M1534.44 1524.72 Q1530.18 1532.04 1528.11 1539.21 Q1526.04 1546.37 1526.04 1553.72 Q1526.04 1561.07 1528.11 1568.3 Q1530.21 1575.49 1534.44 1582.78 L1529.35 1582.78 Q1524.57 1575.3 1522.19 1568.07 Q1519.83 1560.85 1519.83 1553.72 Q1519.83 1546.62 1522.19 1539.43 Q1524.54 1532.24 1529.35 1524.72 L1534.44 1524.72 Z" fill="#000000" fill-rule="nonzero" fill-opacity="1" /><path clip-path="url(#clip400)" d="M1546.06 1526.67 L1552.49 1526.67 L1552.49 1546.14 L1575.85 1546.14 L1575.85 1526.67 L1582.28 1526.67 L1582.28 1574.19 L1575.85 1574.19 L1575.85 1551.56 L1552.49 1551.56 L1552.49 1574.19 L1546.06 1574.19 L1546.06 1526.67 Z" fill="#000000" fill-rule="nonzero" fill-opacity="1" /><path clip-path="url(#clip400)" d="M1592.27 1538.54 L1620.09 1538.54 L1620.09 1543.88 L1598.07 1569.51 L1620.09 1569.51 L1620.09 1574.19 L1591.48 1574.19 L1591.48 1568.84 L1613.5 1543.22 L1592.27 1543.22 L1592.27 1538.54 Z" fill="#000000" fill-rule="nonzero" fill-opacity="1" /><path clip-path="url(#clip400)" d="M1628.11 1524.72 L1633.21 1524.72 Q1637.98 1532.24 1640.33 1539.43 Q1642.72 1546.62 1642.72 1553.72 Q1642.72 1560.85 1640.33 1568.07 Q1637.98 1575.3 1633.21 1582.78 L1628.11 1582.78 Q1632.35 1575.49 1634.41 1568.3 Q1636.52 1561.07 1636.52 1553.72 Q1636.52 1546.37 1634.41 1539.21 Q1632.35 1532.04 1628.11 1524.72 Z" fill="#000000" fill-rule="nonzero" fill-opacity="1" /><polyline clip-path="url(#clip400)" style="stroke:#000000; stroke-linecap:round; stroke-linejoin:round; stroke-width:4; stroke-opacity:1; fill:none" points="220.716,1410.9 220.716,123.472 "/>
<polyline clip-path="url(#clip400)" style="stroke:#000000; stroke-linecap:round; stroke-linejoin:round; stroke-width:4; stroke-opacity:1; fill:none" points="220.716,1094.1 239.613,1094.1 "/>
<polyline clip-path="url(#clip400)" style="stroke:#000000; stroke-linecap:round; stroke-linejoin:round; stroke-width:4; stroke-opacity:1; fill:none" points="220.716,488.239 239.613,488.239 "/>
<polyline clip-path="url(#clip400)" style="stroke:#000000; stroke-linecap:round; stroke-linejoin:round; stroke-width:4; stroke-opacity:1; fill:none" points="220.716,1410.9 230.164,1410.9 "/>
<polyline clip-path="url(#clip400)" style="stroke:#000000; stroke-linecap:round; stroke-linejoin:round; stroke-width:4; stroke-opacity:1; fill:none" points="220.716,1335.2 230.164,1335.2 "/>
<polyline clip-path="url(#clip400)" style="stroke:#000000; stroke-linecap:round; stroke-linejoin:round; stroke-width:4; stroke-opacity:1; fill:none" points="220.716,1276.49 230.164,1276.49 "/>
<polyline clip-path="url(#clip400)" style="stroke:#000000; stroke-linecap:round; stroke-linejoin:round; stroke-width:4; stroke-opacity:1; fill:none" points="220.716,1228.51 230.164,1228.51 "/>
<polyline clip-path="url(#clip400)" style="stroke:#000000; stroke-linecap:round; stroke-linejoin:round; stroke-width:4; stroke-opacity:1; fill:none" points="220.716,1187.95 230.164,1187.95 "/>
<polyline clip-path="url(#clip400)" style="stroke:#000000; stroke-linecap:round; stroke-linejoin:round; stroke-width:4; stroke-opacity:1; fill:none" points="220.716,1152.82 230.164,1152.82 "/>
<polyline clip-path="url(#clip400)" style="stroke:#000000; stroke-linecap:round; stroke-linejoin:round; stroke-width:4; stroke-opacity:1; fill:none" points="220.716,1121.83 230.164,1121.83 "/>
<polyline clip-path="url(#clip400)" style="stroke:#000000; stroke-linecap:round; stroke-linejoin:round; stroke-width:4; stroke-opacity:1; fill:none" points="220.716,911.72 230.164,911.72 "/>
<polyline clip-path="url(#clip400)" style="stroke:#000000; stroke-linecap:round; stroke-linejoin:round; stroke-width:4; stroke-opacity:1; fill:none" points="220.716,805.032 230.164,805.032 "/>
<polyline clip-path="url(#clip400)" style="stroke:#000000; stroke-linecap:round; stroke-linejoin:round; stroke-width:4; stroke-opacity:1; fill:none" points="220.716,729.336 230.164,729.336 "/>
<polyline clip-path="url(#clip400)" style="stroke:#000000; stroke-linecap:round; stroke-linejoin:round; stroke-width:4; stroke-opacity:1; fill:none" points="220.716,670.622 230.164,670.622 "/>
<polyline clip-path="url(#clip400)" style="stroke:#000000; stroke-linecap:round; stroke-linejoin:round; stroke-width:4; stroke-opacity:1; fill:none" points="220.716,622.649 230.164,622.649 "/>
<polyline clip-path="url(#clip400)" style="stroke:#000000; stroke-linecap:round; stroke-linejoin:round; stroke-width:4; stroke-opacity:1; fill:none" points="220.716,582.088 230.164,582.088 "/>
<polyline clip-path="url(#clip400)" style="stroke:#000000; stroke-linecap:round; stroke-linejoin:round; stroke-width:4; stroke-opacity:1; fill:none" points="220.716,546.953 230.164,546.953 "/>
<polyline clip-path="url(#clip400)" style="stroke:#000000; stroke-linecap:round; stroke-linejoin:round; stroke-width:4; stroke-opacity:1; fill:none" points="220.716,515.962 230.164,515.962 "/>
<polyline clip-path="url(#clip400)" style="stroke:#000000; stroke-linecap:round; stroke-linejoin:round; stroke-width:4; stroke-opacity:1; fill:none" points="220.716,305.855 230.164,305.855 "/>
<polyline clip-path="url(#clip400)" style="stroke:#000000; stroke-linecap:round; stroke-linejoin:round; stroke-width:4; stroke-opacity:1; fill:none" points="220.716,199.168 230.164,199.168 "/>
<polyline clip-path="url(#clip400)" style="stroke:#000000; stroke-linecap:round; stroke-linejoin:round; stroke-width:4; stroke-opacity:1; fill:none" points="220.716,123.472 230.164,123.472 "/>
<path clip-path="url(#clip400)" d="M115.59 1113.9 L123.229 1113.9 L123.229 1087.53 L114.918 1089.2 L114.918 1084.94 L123.182 1083.27 L127.858 1083.27 L127.858 1113.9 L135.497 1113.9 L135.497 1117.83 L115.59 1117.83 L115.59 1113.9 Z" fill="#000000" fill-rule="nonzero" fill-opacity="1" /><path clip-path="url(#clip400)" d="M154.941 1086.35 Q151.33 1086.35 149.502 1089.91 Q147.696 1093.46 147.696 1100.59 Q147.696 1107.69 149.502 1111.26 Q151.33 1114.8 154.941 1114.8 Q158.576 1114.8 160.381 1111.26 Q162.21 1107.69 162.21 1100.59 Q162.21 1093.46 160.381 1089.91 Q158.576 1086.35 154.941 1086.35 M154.941 1082.65 Q160.752 1082.65 163.807 1087.25 Q166.886 1091.84 166.886 1100.59 Q166.886 1109.31 163.807 1113.92 Q160.752 1118.5 154.941 1118.5 Q149.131 1118.5 146.053 1113.92 Q142.997 1109.31 142.997 1100.59 Q142.997 1091.84 146.053 1087.25 Q149.131 1082.65 154.941 1082.65 Z" fill="#000000" fill-rule="nonzero" fill-opacity="1" /><path clip-path="url(#clip400)" d="M171.456 1087.22 L184.716 1087.22 L184.716 1090.42 L166.886 1090.42 L166.886 1087.22 Q169.049 1084.98 172.773 1081.22 Q176.515 1077.44 177.475 1076.35 Q179.299 1074.3 180.014 1072.89 Q180.747 1071.46 180.747 1070.09 Q180.747 1067.85 179.167 1066.44 Q177.606 1065.03 175.086 1065.03 Q173.299 1065.03 171.306 1065.65 Q169.331 1066.27 167.074 1067.53 L167.074 1063.69 Q169.368 1062.77 171.362 1062.3 Q173.356 1061.83 175.011 1061.83 Q179.374 1061.83 181.97 1064.01 Q184.565 1066.2 184.565 1069.84 Q184.565 1071.57 183.907 1073.14 Q183.267 1074.68 181.556 1076.78 Q181.086 1077.33 178.565 1079.94 Q176.045 1082.54 171.456 1087.22 Z" fill="#000000" fill-rule="nonzero" fill-opacity="1" /><path clip-path="url(#clip400)" d="M114.931 508.031 L122.57 508.031 L122.57 481.666 L114.26 483.332 L114.26 479.073 L122.524 477.406 L127.2 477.406 L127.2 508.031 L134.839 508.031 L134.839 511.966 L114.931 511.966 L114.931 508.031 Z" fill="#000000" fill-rule="nonzero" fill-opacity="1" /><path clip-path="url(#clip400)" d="M154.283 480.485 Q150.672 480.485 148.843 484.05 Q147.038 487.592 147.038 494.721 Q147.038 501.828 148.843 505.392 Q150.672 508.934 154.283 508.934 Q157.917 508.934 159.723 505.392 Q161.552 501.828 161.552 494.721 Q161.552 487.592 159.723 484.05 Q157.917 480.485 154.283 480.485 M154.283 476.781 Q160.093 476.781 163.149 481.388 Q166.227 485.971 166.227 494.721 Q166.227 503.448 163.149 508.054 Q160.093 512.638 154.283 512.638 Q148.473 512.638 145.394 508.054 Q142.339 503.448 142.339 494.721 Q142.339 485.971 145.394 481.388 Q148.473 476.781 154.283 476.781 Z" fill="#000000" fill-rule="nonzero" fill-opacity="1" /><path clip-path="url(#clip400)" d="M178.923 469.416 Q181.65 469.999 183.173 471.842 Q184.716 473.685 184.716 476.393 Q184.716 480.55 181.857 482.826 Q178.998 485.101 173.732 485.101 Q171.964 485.101 170.083 484.744 Q168.221 484.406 166.227 483.71 L166.227 480.042 Q167.807 480.964 169.688 481.434 Q171.569 481.904 173.619 481.904 Q177.192 481.904 179.054 480.494 Q180.935 479.083 180.935 476.393 Q180.935 473.911 179.186 472.519 Q177.456 471.108 174.352 471.108 L171.08 471.108 L171.08 467.986 L174.503 467.986 Q177.305 467.986 178.791 466.877 Q180.277 465.748 180.277 463.642 Q180.277 461.479 178.735 460.332 Q177.211 459.165 174.352 459.165 Q172.791 459.165 171.005 459.504 Q169.218 459.843 167.074 460.557 L167.074 457.172 Q169.237 456.57 171.117 456.269 Q173.017 455.968 174.691 455.968 Q179.017 455.968 181.537 457.943 Q184.057 459.899 184.057 463.247 Q184.057 465.579 182.722 467.196 Q181.387 468.795 178.923 469.416 Z" fill="#000000" fill-rule="nonzero" fill-opacity="1" /><path clip-path="url(#clip400)" d="M18.0438 1127.48 L24.314 1127.48 Q22.5634 1131.14 21.704 1134.39 Q20.8447 1137.64 20.8447 1140.66 Q20.8447 1145.91 22.8817 1148.78 Q24.9187 1151.61 28.6745 1151.61 Q31.8255 1151.61 33.4488 1149.73 Q35.0402 1147.82 36.0269 1142.54 L36.8226 1138.66 Q38.1912 1131.46 41.6605 1128.06 Q45.098 1124.62 50.8908 1124.62 Q57.7976 1124.62 61.3624 1129.27 Q64.9272 1133.88 64.9272 1142.82 Q64.9272 1146.2 64.1633 1150.02 Q63.3994 1153.81 61.9035 1157.88 L55.2831 1157.88 Q57.4793 1153.96 58.5933 1150.21 Q59.7073 1146.45 59.7073 1142.82 Q59.7073 1137.32 57.543 1134.33 Q55.3786 1131.33 51.3682 1131.33 Q47.8671 1131.33 45.8937 1133.5 Q43.9204 1135.63 42.9337 1140.53 L42.1698 1144.45 Q40.7375 1151.64 37.682 1154.86 Q34.6264 1158.07 29.1837 1158.07 Q22.8817 1158.07 19.2532 1153.65 Q15.6248 1149.19 15.6248 1141.39 Q15.6248 1138.05 16.2295 1134.58 Q16.8343 1131.11 18.0438 1127.48 Z" fill="#000000" fill-rule="nonzero" fill-opacity="1" /><path clip-path="url(#clip400)" d="M58.657 1109.18 L77.5631 1109.18 L77.5631 1115.07 L28.3562 1115.07 L28.3562 1109.18 L33.7671 1109.18 Q30.5842 1107.34 29.0564 1104.54 Q27.4968 1101.7 27.4968 1097.79 Q27.4968 1091.29 32.6531 1087.25 Q37.8093 1083.18 46.212 1083.18 Q54.6147 1083.18 59.771 1087.25 Q64.9272 1091.29 64.9272 1097.79 Q64.9272 1101.7 63.3994 1104.54 Q61.8398 1107.34 58.657 1109.18 M46.212 1089.26 Q39.7508 1089.26 36.0905 1091.93 Q32.3984 1094.57 32.3984 1099.22 Q32.3984 1103.87 36.0905 1106.54 Q39.7508 1109.18 46.212 1109.18 Q52.6732 1109.18 56.3653 1106.54 Q60.0256 1103.87 60.0256 1099.22 Q60.0256 1094.57 56.3653 1091.93 Q52.6732 1089.26 46.212 1089.26 Z" fill="#000000" fill-rule="nonzero" fill-opacity="1" /><path clip-path="url(#clip400)" d="M44.7161 1042.98 L47.5806 1042.98 L47.5806 1069.91 Q53.6281 1069.52 56.8109 1066.28 Q59.9619 1063 59.9619 1057.17 Q59.9619 1053.8 59.1344 1050.65 Q58.3069 1047.47 56.6518 1044.35 L62.1899 1044.35 Q63.5267 1047.5 64.227 1050.81 Q64.9272 1054.12 64.9272 1057.52 Q64.9272 1066.05 59.9619 1071.05 Q54.9967 1076.02 46.5303 1076.02 Q37.7774 1076.02 32.6531 1071.31 Q27.4968 1066.56 27.4968 1058.54 Q27.4968 1051.35 32.1438 1047.18 Q36.7589 1042.98 44.7161 1042.98 M42.9973 1048.84 Q38.1912 1048.9 35.3266 1051.54 Q32.4621 1054.15 32.4621 1058.48 Q32.4621 1063.38 35.2312 1066.34 Q38.0002 1069.27 43.0292 1069.71 L42.9973 1048.84 Z" fill="#000000" fill-rule="nonzero" fill-opacity="1" /><path clip-path="url(#clip400)" d="M29.7248 1007.71 L35.1993 1007.71 Q33.8307 1010.2 33.1623 1012.71 Q32.4621 1015.19 32.4621 1017.74 Q32.4621 1023.44 36.0905 1026.59 Q39.6872 1029.74 46.212 1029.74 Q52.7369 1029.74 56.3653 1026.59 Q59.9619 1023.44 59.9619 1017.74 Q59.9619 1015.19 59.2935 1012.71 Q58.5933 1010.2 57.2247 1007.71 L62.6355 1007.71 Q63.7814 1010.16 64.3543 1012.81 Q64.9272 1015.42 64.9272 1018.38 Q64.9272 1026.43 59.8664 1031.17 Q54.8057 1035.91 46.212 1035.91 Q37.491 1035.91 32.4939 1031.14 Q27.4968 1026.33 27.4968 1017.99 Q27.4968 1015.29 28.0697 1012.71 Q28.6108 1010.13 29.7248 1007.71 Z" fill="#000000" fill-rule="nonzero" fill-opacity="1" /><path clip-path="url(#clip400)" d="M18.2347 991.735 L28.3562 991.735 L28.3562 979.672 L32.9077 979.672 L32.9077 991.735 L52.2594 991.735 Q56.6199 991.735 57.8613 990.557 Q59.1026 989.348 59.1026 985.687 L59.1026 979.672 L64.0042 979.672 L64.0042 985.687 Q64.0042 992.467 61.4897 995.045 Q58.9434 997.623 52.2594 997.623 L32.9077 997.623 L32.9077 1001.92 L28.3562 1001.92 L28.3562 997.623 L18.2347 997.623 L18.2347 991.735 Z" fill="#000000" fill-rule="nonzero" fill-opacity="1" /><path clip-path="url(#clip400)" d="M33.8307 951.312 Q33.2578 952.299 33.0032 953.477 Q32.7167 954.623 32.7167 956.023 Q32.7167 960.988 35.9632 963.662 Q39.1779 966.304 45.2253 966.304 L64.0042 966.304 L64.0042 972.192 L28.3562 972.192 L28.3562 966.304 L33.8944 966.304 Q30.6479 964.458 29.0883 961.498 Q27.4968 958.538 27.4968 954.304 Q27.4968 953.7 27.5923 952.968 Q27.656 952.235 27.8151 951.344 L33.8307 951.312 Z" fill="#000000" fill-rule="nonzero" fill-opacity="1" /><path clip-path="url(#clip400)" d="M46.0847 928.969 Q46.0847 936.067 47.7079 938.804 Q49.3312 941.541 53.2461 941.541 Q56.3653 941.541 58.2114 939.504 Q60.0256 937.435 60.0256 933.902 Q60.0256 929.032 56.5881 926.104 Q53.1188 923.144 47.3897 923.144 L46.0847 923.144 L46.0847 928.969 M43.6657 917.288 L64.0042 917.288 L64.0042 923.144 L58.5933 923.144 Q61.8398 925.149 63.3994 928.141 Q64.9272 931.133 64.9272 935.462 Q64.9272 940.936 61.8716 944.183 Q58.7843 947.398 53.6281 947.398 Q47.6125 947.398 44.5569 943.387 Q41.5014 939.345 41.5014 931.356 L41.5014 923.144 L40.9285 923.144 Q36.8862 923.144 34.6901 925.818 Q32.4621 928.46 32.4621 933.266 Q32.4621 936.321 33.1941 939.218 Q33.9262 942.114 35.3903 944.788 L29.9795 944.788 Q28.7381 941.573 28.1334 938.549 Q27.4968 935.525 27.4968 932.661 Q27.4968 924.927 31.5072 921.107 Q35.5176 917.288 43.6657 917.288 Z" fill="#000000" fill-rule="nonzero" fill-opacity="1" /><path clip-path="url(#clip400)" d="M14.479 905.225 L14.479 899.368 L64.0042 899.368 L64.0042 905.225 L14.479 905.225 Z" fill="#000000" fill-rule="nonzero" fill-opacity="1" /><path clip-path="url(#clip400)" d="M41.3104 859.71 L58.7206 859.71 L58.7206 849.397 Q58.7206 844.209 56.5881 841.727 Q54.4238 839.212 49.9996 839.212 Q45.5436 839.212 43.4429 841.727 Q41.3104 844.209 41.3104 849.397 L41.3104 859.71 M21.7677 859.71 L36.0905 859.71 L36.0905 850.193 Q36.0905 845.483 34.34 843.191 Q32.5576 840.867 28.9291 840.867 Q25.3325 840.867 23.5501 843.191 Q21.7677 845.483 21.7677 850.193 L21.7677 859.71 M16.4842 866.139 L16.4842 849.716 Q16.4842 842.363 19.5397 838.385 Q22.5952 834.406 28.2289 834.406 Q32.5894 834.406 35.1675 836.443 Q37.7456 838.48 38.3822 842.427 Q39.4007 837.685 42.6472 835.075 Q45.8619 832.433 50.6998 832.433 Q57.0655 832.433 60.5348 836.762 Q64.0042 841.09 64.0042 849.079 L64.0042 866.139 L16.4842 866.139 Z" fill="#000000" fill-rule="nonzero" fill-opacity="1" /><path clip-path="url(#clip400)" d="M46.0847 805.474 Q46.0847 812.572 47.7079 815.309 Q49.3312 818.046 53.2461 818.046 Q56.3653 818.046 58.2114 816.009 Q60.0256 813.94 60.0256 810.408 Q60.0256 805.538 56.5881 802.61 Q53.1188 799.649 47.3897 799.649 L46.0847 799.649 L46.0847 805.474 M43.6657 793.793 L64.0042 793.793 L64.0042 799.649 L58.5933 799.649 Q61.8398 801.655 63.3994 804.647 Q64.9272 807.638 64.9272 811.967 Q64.9272 817.442 61.8716 820.688 Q58.7843 823.903 53.6281 823.903 Q47.6125 823.903 44.5569 819.892 Q41.5014 815.85 41.5014 807.861 L41.5014 799.649 L40.9285 799.649 Q36.8862 799.649 34.6901 802.323 Q32.4621 804.965 32.4621 809.771 Q32.4621 812.827 33.1941 815.723 Q33.9262 818.619 35.3903 821.293 L29.9795 821.293 Q28.7381 818.078 28.1334 815.054 Q27.4968 812.031 27.4968 809.166 Q27.4968 801.432 31.5072 797.612 Q35.5176 793.793 43.6657 793.793 Z" fill="#000000" fill-rule="nonzero" fill-opacity="1" /><path clip-path="url(#clip400)" d="M42.4881 752.098 L64.0042 752.098 L64.0042 757.954 L42.679 757.954 Q37.6183 757.954 35.1038 759.927 Q32.5894 761.901 32.5894 765.848 Q32.5894 770.59 35.6131 773.327 Q38.6368 776.065 43.8567 776.065 L64.0042 776.065 L64.0042 781.953 L28.3562 781.953 L28.3562 776.065 L33.8944 776.065 Q30.6797 773.964 29.0883 771.131 Q27.4968 768.267 27.4968 764.543 Q27.4968 758.4 31.3163 755.249 Q35.1038 752.098 42.4881 752.098 Z" fill="#000000" fill-rule="nonzero" fill-opacity="1" /><path clip-path="url(#clip400)" d="M33.7671 716.959 L14.479 716.959 L14.479 711.103 L64.0042 711.103 L64.0042 716.959 L58.657 716.959 Q61.8398 718.805 63.3994 721.638 Q64.9272 724.439 64.9272 728.385 Q64.9272 734.847 59.771 738.921 Q54.6147 742.963 46.212 742.963 Q37.8093 742.963 32.6531 738.921 Q27.4968 734.847 27.4968 728.385 Q27.4968 724.439 29.0564 721.638 Q30.5842 718.805 33.7671 716.959 M46.212 736.915 Q52.6732 736.915 56.3653 734.274 Q60.0256 731.6 60.0256 726.953 Q60.0256 722.306 56.3653 719.633 Q52.6732 716.959 46.212 716.959 Q39.7508 716.959 36.0905 719.633 Q32.3984 722.306 32.3984 726.953 Q32.3984 731.6 36.0905 734.274 Q39.7508 736.915 46.212 736.915 Z" fill="#000000" fill-rule="nonzero" fill-opacity="1" /><path clip-path="url(#clip400)" d="M28.3562 702.445 L28.3562 696.589 L56.1743 689.268 L28.3562 681.979 L28.3562 675.073 L56.1743 667.752 L28.3562 660.463 L28.3562 654.607 L64.0042 663.933 L64.0042 670.839 L34.7856 678.51 L64.0042 686.213 L64.0042 693.119 L28.3562 702.445 Z" fill="#000000" fill-rule="nonzero" fill-opacity="1" /><path clip-path="url(#clip400)" d="M28.3562 645.727 L28.3562 639.87 L64.0042 639.87 L64.0042 645.727 L28.3562 645.727 M14.479 645.727 L14.479 639.87 L21.895 639.87 L21.895 645.727 L14.479 645.727 Z" fill="#000000" fill-rule="nonzero" fill-opacity="1" /><path clip-path="url(#clip400)" d="M33.7671 604.159 L14.479 604.159 L14.479 598.302 L64.0042 598.302 L64.0042 604.159 L58.657 604.159 Q61.8398 606.005 63.3994 608.837 Q64.9272 611.638 64.9272 615.585 Q64.9272 622.046 59.771 626.12 Q54.6147 630.163 46.212 630.163 Q37.8093 630.163 32.6531 626.12 Q27.4968 622.046 27.4968 615.585 Q27.4968 611.638 29.0564 608.837 Q30.5842 606.005 33.7671 604.159 M46.212 624.115 Q52.6732 624.115 56.3653 621.473 Q60.0256 618.8 60.0256 614.153 Q60.0256 609.506 56.3653 606.832 Q52.6732 604.159 46.212 604.159 Q39.7508 604.159 36.0905 606.832 Q32.3984 609.506 32.3984 614.153 Q32.3984 618.8 36.0905 621.473 Q39.7508 624.115 46.212 624.115 Z" fill="#000000" fill-rule="nonzero" fill-opacity="1" /><path clip-path="url(#clip400)" d="M18.2347 580.446 L28.3562 580.446 L28.3562 568.383 L32.9077 568.383 L32.9077 580.446 L52.2594 580.446 Q56.6199 580.446 57.8613 579.269 Q59.1026 578.059 59.1026 574.399 L59.1026 568.383 L64.0042 568.383 L64.0042 574.399 Q64.0042 581.178 61.4897 583.757 Q58.9434 586.335 52.2594 586.335 L32.9077 586.335 L32.9077 590.632 L28.3562 590.632 L28.3562 586.335 L18.2347 586.335 L18.2347 580.446 Z" fill="#000000" fill-rule="nonzero" fill-opacity="1" /><path clip-path="url(#clip400)" d="M42.4881 531.048 L64.0042 531.048 L64.0042 536.905 L42.679 536.905 Q37.6183 536.905 35.1038 538.878 Q32.5894 540.852 32.5894 544.798 Q32.5894 549.541 35.6131 552.278 Q38.6368 555.015 43.8567 555.015 L64.0042 555.015 L64.0042 560.904 L14.479 560.904 L14.479 555.015 L33.8944 555.015 Q30.6797 552.915 29.0883 550.082 Q27.4968 547.217 27.4968 543.493 Q27.4968 537.351 31.3163 534.2 Q35.1038 531.048 42.4881 531.048 Z" fill="#000000" fill-rule="nonzero" fill-opacity="1" /><path clip-path="url(#clip400)" d="M14.5426 484.579 Q21.8632 488.844 29.0246 490.913 Q36.186 492.982 43.5384 492.982 Q50.8908 492.982 58.1159 490.913 Q65.3091 488.812 72.5979 484.579 L72.5979 489.671 Q65.1182 494.446 57.8931 496.833 Q50.668 499.188 43.5384 499.188 Q36.4406 499.188 29.2474 496.833 Q22.0542 494.478 14.5426 489.671 L14.5426 484.579 Z" fill="#000000" fill-rule="nonzero" fill-opacity="1" /><path clip-path="url(#clip400)" d="M16.4842 472.961 L16.4842 466.532 L35.9632 466.532 L35.9632 443.17 L16.4842 443.17 L16.4842 436.741 L64.0042 436.741 L64.0042 443.17 L41.3741 443.17 L41.3741 466.532 L64.0042 466.532 L64.0042 472.961 L16.4842 472.961 Z" fill="#000000" fill-rule="nonzero" fill-opacity="1" /><path clip-path="url(#clip400)" d="M28.3562 426.746 L28.3562 398.928 L33.7034 398.928 L59.3254 420.954 L59.3254 398.928 L64.0042 398.928 L64.0042 427.542 L58.657 427.542 L33.035 405.517 L33.035 426.746 L28.3562 426.746 Z" fill="#000000" fill-rule="nonzero" fill-opacity="1" /><path clip-path="url(#clip400)" d="M14.5426 390.907 L14.5426 385.815 Q22.0542 381.041 29.2474 378.685 Q36.4406 376.298 43.5384 376.298 Q50.668 376.298 57.8931 378.685 Q65.1182 381.041 72.5979 385.815 L72.5979 390.907 Q65.3091 386.674 58.1159 384.605 Q50.8908 382.505 43.5384 382.505 Q36.186 382.505 29.0246 384.605 Q21.8632 386.674 14.5426 390.907 Z" fill="#000000" fill-rule="nonzero" fill-opacity="1" /><path clip-path="url(#clip400)" d="M786.53 12.096 L794.713 12.096 L794.713 37.6572 L821.854 12.096 L832.386 12.096 L802.369 40.2903 L834.533 72.576 L823.758 72.576 L794.713 43.45 L794.713 72.576 L786.53 72.576 L786.53 12.096 Z" fill="#000000" fill-rule="nonzero" fill-opacity="1" /><path clip-path="url(#clip400)" d="M875.285 48.0275 L875.285 51.6733 L841.015 51.6733 Q841.501 59.3701 845.633 63.421 Q849.805 67.4314 857.218 67.4314 Q861.512 67.4314 865.523 66.3781 Q869.574 65.3249 873.543 63.2184 L873.543 70.267 Q869.533 71.9684 865.32 72.8596 Q861.107 73.7508 856.773 73.7508 Q845.916 73.7508 839.556 67.4314 Q833.237 61.1119 833.237 50.3365 Q833.237 39.1965 839.232 32.6746 Q845.268 26.1121 855.476 26.1121 Q864.631 26.1121 869.938 32.0264 Q875.285 37.9003 875.285 48.0275 M867.832 45.84 Q867.751 39.7232 864.388 36.0774 Q861.067 32.4315 855.557 32.4315 Q849.319 32.4315 845.552 35.9558 Q841.825 39.4801 841.258 45.8805 L867.832 45.84 Z" fill="#000000" fill-rule="nonzero" fill-opacity="1" /><path clip-path="url(#clip400)" d="M913.809 34.1734 Q912.554 33.4443 911.055 33.1202 Q909.597 32.7556 907.814 32.7556 Q901.495 32.7556 898.092 36.8875 Q894.73 40.9789 894.73 48.6757 L894.73 72.576 L887.236 72.576 L887.236 27.2059 L894.73 27.2059 L894.73 34.2544 Q897.079 30.1225 900.847 28.1376 Q904.614 26.1121 910.002 26.1121 Q910.771 26.1121 911.703 26.2337 Q912.635 26.3147 913.769 26.5172 L913.809 34.1734 Z" fill="#000000" fill-rule="nonzero" fill-opacity="1" /><path clip-path="url(#clip400)" d="M957.883 45.1919 L957.883 72.576 L950.43 72.576 L950.43 45.4349 Q950.43 38.994 947.918 35.7938 Q945.407 32.5936 940.383 32.5936 Q934.348 32.5936 930.864 36.4419 Q927.38 40.2903 927.38 46.9338 L927.38 72.576 L919.886 72.576 L919.886 27.2059 L927.38 27.2059 L927.38 34.2544 Q930.054 30.163 933.659 28.1376 Q937.305 26.1121 942.044 26.1121 Q949.863 26.1121 953.873 30.9732 Q957.883 35.7938 957.883 45.1919 Z" fill="#000000" fill-rule="nonzero" fill-opacity="1" /><path clip-path="url(#clip400)" d="M1011.56 48.0275 L1011.56 51.6733 L977.287 51.6733 Q977.773 59.3701 981.905 63.421 Q986.078 67.4314 993.491 67.4314 Q997.785 67.4314 1001.8 66.3781 Q1005.85 65.3249 1009.82 63.2184 L1009.82 70.267 Q1005.81 71.9684 1001.59 72.8596 Q997.38 73.7508 993.045 73.7508 Q982.189 73.7508 975.829 67.4314 Q969.509 61.1119 969.509 50.3365 Q969.509 39.1965 975.505 32.6746 Q981.541 26.1121 991.749 26.1121 Q1000.9 26.1121 1006.21 32.0264 Q1011.56 37.9003 1011.56 48.0275 M1004.1 45.84 Q1004.02 39.7232 1000.66 36.0774 Q997.339 32.4315 991.83 32.4315 Q985.591 32.4315 981.824 35.9558 Q978.097 39.4801 977.53 45.8805 L1004.1 45.84 Z" fill="#000000" fill-rule="nonzero" fill-opacity="1" /><path clip-path="url(#clip400)" d="M1023.79 9.54393 L1031.25 9.54393 L1031.25 72.576 L1023.79 72.576 L1023.79 9.54393 Z" fill="#000000" fill-rule="nonzero" fill-opacity="1" /><path clip-path="url(#clip400)" d="M1109.79 14.0809 L1109.79 22.0612 Q1105.13 19.8332 1101 18.7395 Q1096.87 17.6457 1093.02 17.6457 Q1086.34 17.6457 1082.69 20.2383 Q1079.09 22.8309 1079.09 27.611 Q1079.09 31.6214 1081.48 33.6873 Q1083.91 35.7128 1090.63 36.9686 L1095.57 37.9813 Q1104.73 39.7232 1109.06 44.1387 Q1113.44 48.5136 1113.44 55.8863 Q1113.44 64.6767 1107.52 69.2137 Q1101.65 73.7508 1090.27 73.7508 Q1085.97 73.7508 1081.11 72.7785 Q1076.29 71.8063 1071.11 69.9024 L1071.11 61.4765 Q1076.09 64.2716 1080.87 65.6895 Q1085.65 67.1073 1090.27 67.1073 Q1097.27 67.1073 1101.08 64.3527 Q1104.89 61.598 1104.89 56.4939 Q1104.89 52.0379 1102.14 49.5264 Q1099.42 47.0148 1093.18 45.759 L1088.2 44.7868 Q1079.05 42.9639 1074.95 39.075 Q1070.86 35.1862 1070.86 28.2591 Q1070.86 20.2383 1076.49 15.6203 Q1082.17 11.0023 1092.09 11.0023 Q1096.34 11.0023 1100.76 11.7719 Q1105.17 12.5416 1109.79 14.0809 Z" fill="#000000" fill-rule="nonzero" fill-opacity="1" /><path clip-path="url(#clip400)" d="M1133.08 65.7705 L1133.08 89.8329 L1125.59 89.8329 L1125.59 27.2059 L1133.08 27.2059 L1133.08 34.0924 Q1135.43 30.0415 1139 28.0971 Q1142.6 26.1121 1147.59 26.1121 Q1155.85 26.1121 1161 32.6746 Q1166.18 39.2371 1166.18 49.9314 Q1166.18 60.6258 1161 67.1883 Q1155.85 73.7508 1147.59 73.7508 Q1142.6 73.7508 1139 71.8063 Q1135.43 69.8214 1133.08 65.7705 M1158.44 49.9314 Q1158.44 41.7081 1155.04 37.0496 Q1151.68 32.3505 1145.76 32.3505 Q1139.85 32.3505 1136.45 37.0496 Q1133.08 41.7081 1133.08 49.9314 Q1133.08 58.1548 1136.45 62.8538 Q1139.85 67.5124 1145.76 67.5124 Q1151.68 67.5124 1155.04 62.8538 Q1158.44 58.1548 1158.44 49.9314 Z" fill="#000000" fill-rule="nonzero" fill-opacity="1" /><path clip-path="url(#clip400)" d="M1217.34 48.0275 L1217.34 51.6733 L1183.07 51.6733 Q1183.56 59.3701 1187.69 63.421 Q1191.86 67.4314 1199.28 67.4314 Q1203.57 67.4314 1207.58 66.3781 Q1211.63 65.3249 1215.6 63.2184 L1215.6 70.267 Q1211.59 71.9684 1207.38 72.8596 Q1203.17 73.7508 1198.83 73.7508 Q1187.97 73.7508 1181.61 67.4314 Q1175.3 61.1119 1175.3 50.3365 Q1175.3 39.1965 1181.29 32.6746 Q1187.33 26.1121 1197.53 26.1121 Q1206.69 26.1121 1212 32.0264 Q1217.34 37.9003 1217.34 48.0275 M1209.89 45.84 Q1209.81 39.7232 1206.45 36.0774 Q1203.13 32.4315 1197.62 32.4315 Q1191.38 32.4315 1187.61 35.9558 Q1183.88 39.4801 1183.32 45.8805 L1209.89 45.84 Z" fill="#000000" fill-rule="nonzero" fill-opacity="1" /><path clip-path="url(#clip400)" d="M1262.23 28.9478 L1262.23 35.9153 Q1259.07 34.1734 1255.87 33.3227 Q1252.71 32.4315 1249.47 32.4315 Q1242.22 32.4315 1238.21 37.0496 Q1234.2 41.6271 1234.2 49.9314 Q1234.2 58.2358 1238.21 62.8538 Q1242.22 67.4314 1249.47 67.4314 Q1252.71 67.4314 1255.87 66.5807 Q1259.07 65.6895 1262.23 63.9476 L1262.23 70.8341 Q1259.11 72.2924 1255.75 73.0216 Q1252.42 73.7508 1248.66 73.7508 Q1238.41 73.7508 1232.37 67.3098 Q1226.34 60.8689 1226.34 49.9314 Q1226.34 38.832 1232.41 32.472 Q1238.53 26.1121 1249.14 26.1121 Q1252.59 26.1121 1255.87 26.8413 Q1259.15 27.5299 1262.23 28.9478 Z" fill="#000000" fill-rule="nonzero" fill-opacity="1" /><path clip-path="url(#clip400)" d="M1282.56 14.324 L1282.56 27.2059 L1297.92 27.2059 L1297.92 32.9987 L1282.56 32.9987 L1282.56 57.6282 Q1282.56 63.1779 1284.06 64.7578 Q1285.6 66.3376 1290.26 66.3376 L1297.92 66.3376 L1297.92 72.576 L1290.26 72.576 Q1281.63 72.576 1278.35 69.3758 Q1275.07 66.1351 1275.07 57.6282 L1275.07 32.9987 L1269.6 32.9987 L1269.6 27.2059 L1275.07 27.2059 L1275.07 14.324 L1282.56 14.324 Z" fill="#000000" fill-rule="nonzero" fill-opacity="1" /><path clip-path="url(#clip400)" d="M1334.01 34.1734 Q1332.75 33.4443 1331.26 33.1202 Q1329.8 32.7556 1328.01 32.7556 Q1321.7 32.7556 1318.29 36.8875 Q1314.93 40.9789 1314.93 48.6757 L1314.93 72.576 L1307.44 72.576 L1307.44 27.2059 L1314.93 27.2059 L1314.93 34.2544 Q1317.28 30.1225 1321.05 28.1376 Q1324.81 26.1121 1330.2 26.1121 Q1330.97 26.1121 1331.9 26.2337 Q1332.83 26.3147 1333.97 26.5172 L1334.01 34.1734 Z" fill="#000000" fill-rule="nonzero" fill-opacity="1" /><path clip-path="url(#clip400)" d="M1362.45 49.7694 Q1353.41 49.7694 1349.93 51.8354 Q1346.45 53.9013 1346.45 58.8839 Q1346.45 62.8538 1349.04 65.2034 Q1351.67 67.5124 1356.17 67.5124 Q1362.37 67.5124 1366.09 63.1374 Q1369.86 58.7219 1369.86 51.4303 L1369.86 49.7694 L1362.45 49.7694 M1377.31 46.6907 L1377.31 72.576 L1369.86 72.576 L1369.86 65.6895 Q1367.31 69.8214 1363.5 71.8063 Q1359.69 73.7508 1354.18 73.7508 Q1347.22 73.7508 1343.08 69.8619 Q1338.99 65.9325 1338.99 59.3701 Q1338.99 51.7138 1344.1 47.825 Q1349.24 43.9361 1359.41 43.9361 L1369.86 43.9361 L1369.86 43.2069 Q1369.86 38.0623 1366.46 35.2672 Q1363.1 32.4315 1356.98 32.4315 Q1353.09 32.4315 1349.4 33.3632 Q1345.72 34.295 1342.31 36.1584 L1342.31 29.2718 Q1346.41 27.692 1350.25 26.9223 Q1354.1 26.1121 1357.75 26.1121 Q1367.59 26.1121 1372.45 31.2163 Q1377.31 36.3204 1377.31 46.6907 Z" fill="#000000" fill-rule="nonzero" fill-opacity="1" /><path clip-path="url(#clip400)" d="M1392.67 9.54393 L1400.12 9.54393 L1400.12 72.576 L1392.67 72.576 L1392.67 9.54393 Z" fill="#000000" fill-rule="nonzero" fill-opacity="1" /><path clip-path="url(#clip400)" d="M1442.41 12.096 L1477.17 12.096 L1477.17 18.9825 L1450.59 18.9825 L1450.59 36.8065 L1474.58 36.8065 L1474.58 43.6931 L1450.59 43.6931 L1450.59 72.576 L1442.41 72.576 L1442.41 12.096 Z" fill="#000000" fill-rule="nonzero" fill-opacity="1" /><path clip-path="url(#clip400)" d="M1524.08 48.0275 L1524.08 51.6733 L1489.81 51.6733 Q1490.29 59.3701 1494.43 63.421 Q1498.6 67.4314 1506.01 67.4314 Q1510.31 67.4314 1514.32 66.3781 Q1518.37 65.3249 1522.34 63.2184 L1522.34 70.267 Q1518.33 71.9684 1514.11 72.8596 Q1509.9 73.7508 1505.57 73.7508 Q1494.71 73.7508 1488.35 67.4314 Q1482.03 61.1119 1482.03 50.3365 Q1482.03 39.1965 1488.03 32.6746 Q1494.06 26.1121 1504.27 26.1121 Q1513.42 26.1121 1518.73 32.0264 Q1524.08 37.9003 1524.08 48.0275 M1516.62 45.84 Q1516.54 39.7232 1513.18 36.0774 Q1509.86 32.4315 1504.35 32.4315 Q1498.11 32.4315 1494.34 35.9558 Q1490.62 39.4801 1490.05 45.8805 L1516.62 45.84 Z" fill="#000000" fill-rule="nonzero" fill-opacity="1" /><path clip-path="url(#clip400)" d="M1556.93 49.7694 Q1547.9 49.7694 1544.41 51.8354 Q1540.93 53.9013 1540.93 58.8839 Q1540.93 62.8538 1543.52 65.2034 Q1546.16 67.5124 1550.65 67.5124 Q1556.85 67.5124 1560.58 63.1374 Q1564.34 58.7219 1564.34 51.4303 L1564.34 49.7694 L1556.93 49.7694 M1571.8 46.6907 L1571.8 72.576 L1564.34 72.576 L1564.34 65.6895 Q1561.79 69.8214 1557.98 71.8063 Q1554.18 73.7508 1548.67 73.7508 Q1541.7 73.7508 1537.57 69.8619 Q1533.48 65.9325 1533.48 59.3701 Q1533.48 51.7138 1538.58 47.825 Q1543.73 43.9361 1553.89 43.9361 L1564.34 43.9361 L1564.34 43.2069 Q1564.34 38.0623 1560.94 35.2672 Q1557.58 32.4315 1551.46 32.4315 Q1547.57 32.4315 1543.89 33.3632 Q1540.2 34.295 1536.8 36.1584 L1536.8 29.2718 Q1540.89 27.692 1544.74 26.9223 Q1548.59 26.1121 1552.23 26.1121 Q1562.08 26.1121 1566.94 31.2163 Q1571.8 36.3204 1571.8 46.6907 Z" fill="#000000" fill-rule="nonzero" fill-opacity="1" /><path clip-path="url(#clip400)" d="M1594.52 14.324 L1594.52 27.2059 L1609.88 27.2059 L1609.88 32.9987 L1594.52 32.9987 L1594.52 57.6282 Q1594.52 63.1779 1596.02 64.7578 Q1597.56 66.3376 1602.22 66.3376 L1609.88 66.3376 L1609.88 72.576 L1602.22 72.576 Q1593.59 72.576 1590.31 69.3758 Q1587.03 66.1351 1587.03 57.6282 L1587.03 32.9987 L1581.56 32.9987 L1581.56 27.2059 L1587.03 27.2059 L1587.03 14.324 L1594.52 14.324 Z" fill="#000000" fill-rule="nonzero" fill-opacity="1" /><path clip-path="url(#clip400)" d="M1618.91 54.671 L1618.91 27.2059 L1626.36 27.2059 L1626.36 54.3874 Q1626.36 60.8284 1628.88 64.0691 Q1631.39 67.2693 1636.41 67.2693 Q1642.45 67.2693 1645.93 63.421 Q1649.45 59.5726 1649.45 52.9291 L1649.45 27.2059 L1656.91 27.2059 L1656.91 72.576 L1649.45 72.576 L1649.45 65.6084 Q1646.74 69.7404 1643.13 71.7658 Q1639.57 73.7508 1634.83 73.7508 Q1627.01 73.7508 1622.96 68.8897 Q1618.91 64.0286 1618.91 54.671 M1637.67 26.1121 L1637.67 26.1121 Z" fill="#000000" fill-rule="nonzero" fill-opacity="1" /><path clip-path="url(#clip400)" d="M1698.55 34.1734 Q1697.29 33.4443 1695.8 33.1202 Q1694.34 32.7556 1692.56 32.7556 Q1686.24 32.7556 1682.83 36.8875 Q1679.47 40.9789 1679.47 48.6757 L1679.47 72.576 L1671.98 72.576 L1671.98 27.2059 L1679.47 27.2059 L1679.47 34.2544 Q1681.82 30.1225 1685.59 28.1376 Q1689.36 26.1121 1694.74 26.1121 Q1695.51 26.1121 1696.44 26.2337 Q1697.38 26.3147 1698.51 26.5172 L1698.55 34.1734 Z" fill="#000000" fill-rule="nonzero" fill-opacity="1" /><path clip-path="url(#clip400)" d="M1743.35 48.0275 L1743.35 51.6733 L1709.08 51.6733 Q1709.57 59.3701 1713.7 63.421 Q1717.87 67.4314 1725.29 67.4314 Q1729.58 67.4314 1733.59 66.3781 Q1737.64 65.3249 1741.61 63.2184 L1741.61 70.267 Q1737.6 71.9684 1733.39 72.8596 Q1729.18 73.7508 1724.84 73.7508 Q1713.98 73.7508 1707.62 67.4314 Q1701.31 61.1119 1701.31 50.3365 Q1701.31 39.1965 1707.3 32.6746 Q1713.34 26.1121 1723.54 26.1121 Q1732.7 26.1121 1738.01 32.0264 Q1743.35 37.9003 1743.35 48.0275 M1735.9 45.84 Q1735.82 39.7232 1732.46 36.0774 Q1729.13 32.4315 1723.63 32.4315 Q1717.39 32.4315 1713.62 35.9558 Q1709.89 39.4801 1709.33 45.8805 L1735.9 45.84 Z" fill="#000000" fill-rule="nonzero" fill-opacity="1" /><path clip-path="url(#clip400)" d="M1784.51 28.5427 L1784.51 35.5912 Q1781.35 33.9709 1777.95 33.1607 Q1774.55 32.3505 1770.9 32.3505 Q1765.35 32.3505 1762.55 34.0519 Q1759.8 35.7533 1759.8 39.156 Q1759.8 41.7486 1761.79 43.2475 Q1763.77 44.7058 1769.77 46.0426 L1772.32 46.6097 Q1780.26 48.3111 1783.58 51.4303 Q1786.94 54.509 1786.94 60.0587 Q1786.94 66.3781 1781.92 70.0644 Q1776.94 73.7508 1768.19 73.7508 Q1764.54 73.7508 1760.57 73.0216 Q1756.64 72.3329 1752.27 70.9151 L1752.27 63.2184 Q1756.4 65.3654 1760.41 66.4591 Q1764.42 67.5124 1768.35 67.5124 Q1773.61 67.5124 1776.45 65.73 Q1779.29 63.9071 1779.29 60.6258 Q1779.29 57.5877 1777.22 55.9673 Q1775.19 54.3469 1768.27 52.8481 L1765.67 52.2405 Q1758.75 50.7821 1755.67 47.7845 Q1752.59 44.7463 1752.59 39.4801 Q1752.59 33.0797 1757.13 29.5959 Q1761.66 26.1121 1770.01 26.1121 Q1774.14 26.1121 1777.79 26.7198 Q1781.43 27.3274 1784.51 28.5427 Z" fill="#000000" fill-rule="nonzero" fill-opacity="1" /><circle clip-path="url(#clip402)" cx="1625.75" cy="771.768" r="10.8" fill="#009af9" fill-rule="evenodd" fill-opacity="1" stroke="#000000" stroke-opacity="1" stroke-width="3.2"/>
<circle clip-path="url(#clip402)" cx="1800.22" cy="577.799" r="10.8" fill="#009af9" fill-rule="evenodd" fill-opacity="1" stroke="#000000" stroke-opacity="1" stroke-width="3.2"/>
<circle clip-path="url(#clip402)" cx="2024.73" cy="359.258" r="10.8" fill="#009af9" fill-rule="evenodd" fill-opacity="1" stroke="#000000" stroke-opacity="1" stroke-width="3.2"/>
<circle clip-path="url(#clip402)" cx="2040.07" cy="451.474" r="10.8" fill="#009af9" fill-rule="evenodd" fill-opacity="1" stroke="#000000" stroke-opacity="1" stroke-width="3.2"/>
<circle clip-path="url(#clip402)" cx="1582.48" cy="726.998" r="10.8" fill="#009af9" fill-rule="evenodd" fill-opacity="1" stroke="#000000" stroke-opacity="1" stroke-width="3.2"/>
<circle clip-path="url(#clip402)" cx="2113.32" cy="295.957" r="10.8" fill="#009af9" fill-rule="evenodd" fill-opacity="1" stroke="#000000" stroke-opacity="1" stroke-width="3.2"/>
<circle clip-path="url(#clip402)" cx="1872.28" cy="444.72" r="10.8" fill="#009af9" fill-rule="evenodd" fill-opacity="1" stroke="#000000" stroke-opacity="1" stroke-width="3.2"/>
<circle clip-path="url(#clip402)" cx="1611.28" cy="831.719" r="10.8" fill="#009af9" fill-rule="evenodd" fill-opacity="1" stroke="#000000" stroke-opacity="1" stroke-width="3.2"/>
<circle clip-path="url(#clip402)" cx="1977.13" cy="470.637" r="10.8" fill="#009af9" fill-rule="evenodd" fill-opacity="1" stroke="#000000" stroke-opacity="1" stroke-width="3.2"/>
<circle clip-path="url(#clip402)" cx="1546.89" cy="779.293" r="10.8" fill="#009af9" fill-rule="evenodd" fill-opacity="1" stroke="#000000" stroke-opacity="1" stroke-width="3.2"/>
<circle clip-path="url(#clip402)" cx="2093.2" cy="293.96" r="10.8" fill="#009af9" fill-rule="evenodd" fill-opacity="1" stroke="#000000" stroke-opacity="1" stroke-width="3.2"/>
<circle clip-path="url(#clip402)" cx="2029.2" cy="379.483" r="10.8" fill="#009af9" fill-rule="evenodd" fill-opacity="1" stroke="#000000" stroke-opacity="1" stroke-width="3.2"/>
<circle clip-path="url(#clip402)" cx="1859.67" cy="439.083" r="10.8" fill="#009af9" fill-rule="evenodd" fill-opacity="1" stroke="#000000" stroke-opacity="1" stroke-width="3.2"/>
<circle clip-path="url(#clip402)" cx="1831.33" cy="426.413" r="10.8" fill="#009af9" fill-rule="evenodd" fill-opacity="1" stroke="#000000" stroke-opacity="1" stroke-width="3.2"/>
<circle clip-path="url(#clip402)" cx="2067.08" cy="339.871" r="10.8" fill="#009af9" fill-rule="evenodd" fill-opacity="1" stroke="#000000" stroke-opacity="1" stroke-width="3.2"/>
<circle clip-path="url(#clip402)" cx="1655.83" cy="486.558" r="10.8" fill="#009af9" fill-rule="evenodd" fill-opacity="1" stroke="#000000" stroke-opacity="1" stroke-width="3.2"/>
<circle clip-path="url(#clip402)" cx="2138.61" cy="513.528" r="10.8" fill="#009af9" fill-rule="evenodd" fill-opacity="1" stroke="#000000" stroke-opacity="1" stroke-width="3.2"/>
<circle clip-path="url(#clip402)" cx="1632.65" cy="556.761" r="10.8" fill="#009af9" fill-rule="evenodd" fill-opacity="1" stroke="#000000" stroke-opacity="1" stroke-width="3.2"/>
<circle clip-path="url(#clip402)" cx="1908.54" cy="455.001" r="10.8" fill="#009af9" fill-rule="evenodd" fill-opacity="1" stroke="#000000" stroke-opacity="1" stroke-width="3.2"/>
<circle clip-path="url(#clip402)" cx="1831.61" cy="443.803" r="10.8" fill="#009af9" fill-rule="evenodd" fill-opacity="1" stroke="#000000" stroke-opacity="1" stroke-width="3.2"/>
<circle clip-path="url(#clip402)" cx="1949.95" cy="447.976" r="10.8" fill="#009af9" fill-rule="evenodd" fill-opacity="1" stroke="#000000" stroke-opacity="1" stroke-width="3.2"/>
<circle clip-path="url(#clip402)" cx="1411.7" cy="731.869" r="10.8" fill="#009af9" fill-rule="evenodd" fill-opacity="1" stroke="#000000" stroke-opacity="1" stroke-width="3.2"/>
<circle clip-path="url(#clip402)" cx="1908.44" cy="371.684" r="10.8" fill="#009af9" fill-rule="evenodd" fill-opacity="1" stroke="#000000" stroke-opacity="1" stroke-width="3.2"/>
<circle clip-path="url(#clip402)" cx="1545.77" cy="662.473" r="10.8" fill="#009af9" fill-rule="evenodd" fill-opacity="1" stroke="#000000" stroke-opacity="1" stroke-width="3.2"/>
<circle clip-path="url(#clip402)" cx="2090.22" cy="340.282" r="10.8" fill="#009af9" fill-rule="evenodd" fill-opacity="1" stroke="#000000" stroke-opacity="1" stroke-width="3.2"/>
<circle clip-path="url(#clip402)" cx="2122.31" cy="856.897" r="10.8" fill="#009af9" fill-rule="evenodd" fill-opacity="1" stroke="#000000" stroke-opacity="1" stroke-width="3.2"/>
<circle clip-path="url(#clip402)" cx="1930.61" cy="320.081" r="10.8" fill="#009af9" fill-rule="evenodd" fill-opacity="1" stroke="#000000" stroke-opacity="1" stroke-width="3.2"/>
<circle clip-path="url(#clip402)" cx="1981.19" cy="405.915" r="10.8" fill="#009af9" fill-rule="evenodd" fill-opacity="1" stroke="#000000" stroke-opacity="1" stroke-width="3.2"/>
<circle clip-path="url(#clip402)" cx="1900.27" cy="399.208" r="10.8" fill="#009af9" fill-rule="evenodd" fill-opacity="1" stroke="#000000" stroke-opacity="1" stroke-width="3.2"/>
<circle clip-path="url(#clip402)" cx="1642.27" cy="553.299" r="10.8" fill="#009af9" fill-rule="evenodd" fill-opacity="1" stroke="#000000" stroke-opacity="1" stroke-width="3.2"/>
<circle clip-path="url(#clip402)" cx="1826.64" cy="475.953" r="10.8" fill="#009af9" fill-rule="evenodd" fill-opacity="1" stroke="#000000" stroke-opacity="1" stroke-width="3.2"/>
<circle clip-path="url(#clip402)" cx="1922.09" cy="473.428" r="10.8" fill="#009af9" fill-rule="evenodd" fill-opacity="1" stroke="#000000" stroke-opacity="1" stroke-width="3.2"/>
<circle clip-path="url(#clip402)" cx="2163.54" cy="809.361" r="10.8" fill="#009af9" fill-rule="evenodd" fill-opacity="1" stroke="#000000" stroke-opacity="1" stroke-width="3.2"/>
<circle clip-path="url(#clip402)" cx="2020.96" cy="377.777" r="10.8" fill="#009af9" fill-rule="evenodd" fill-opacity="1" stroke="#000000" stroke-opacity="1" stroke-width="3.2"/>
<circle clip-path="url(#clip402)" cx="1876.21" cy="389.423" r="10.8" fill="#009af9" fill-rule="evenodd" fill-opacity="1" stroke="#000000" stroke-opacity="1" stroke-width="3.2"/>
<circle clip-path="url(#clip402)" cx="2148.79" cy="676.318" r="10.8" fill="#009af9" fill-rule="evenodd" fill-opacity="1" stroke="#000000" stroke-opacity="1" stroke-width="3.2"/>
<circle clip-path="url(#clip402)" cx="1673.56" cy="776.886" r="10.8" fill="#009af9" fill-rule="evenodd" fill-opacity="1" stroke="#000000" stroke-opacity="1" stroke-width="3.2"/>
<circle clip-path="url(#clip402)" cx="1651.06" cy="527.378" r="10.8" fill="#009af9" fill-rule="evenodd" fill-opacity="1" stroke="#000000" stroke-opacity="1" stroke-width="3.2"/>
<circle clip-path="url(#clip402)" cx="1714.32" cy="520.837" r="10.8" fill="#009af9" fill-rule="evenodd" fill-opacity="1" stroke="#000000" stroke-opacity="1" stroke-width="3.2"/>
<circle clip-path="url(#clip402)" cx="2053.76" cy="359.029" r="10.8" fill="#009af9" fill-rule="evenodd" fill-opacity="1" stroke="#000000" stroke-opacity="1" stroke-width="3.2"/>
<circle clip-path="url(#clip402)" cx="1208.16" cy="1080.37" r="10.8" fill="#009af9" fill-rule="evenodd" fill-opacity="1" stroke="#000000" stroke-opacity="1" stroke-width="3.2"/>
<circle clip-path="url(#clip402)" cx="1406.17" cy="996.834" r="10.8" fill="#009af9" fill-rule="evenodd" fill-opacity="1" stroke="#000000" stroke-opacity="1" stroke-width="3.2"/>
<circle clip-path="url(#clip402)" cx="1994.3" cy="344.391" r="10.8" fill="#009af9" fill-rule="evenodd" fill-opacity="1" stroke="#000000" stroke-opacity="1" stroke-width="3.2"/>
<circle clip-path="url(#clip402)" cx="1808.97" cy="460.988" r="10.8" fill="#009af9" fill-rule="evenodd" fill-opacity="1" stroke="#000000" stroke-opacity="1" stroke-width="3.2"/>
<circle clip-path="url(#clip402)" cx="1831.9" cy="426.279" r="10.8" fill="#009af9" fill-rule="evenodd" fill-opacity="1" stroke="#000000" stroke-opacity="1" stroke-width="3.2"/>
<circle clip-path="url(#clip402)" cx="2091.08" cy="324.272" r="10.8" fill="#009af9" fill-rule="evenodd" fill-opacity="1" stroke="#000000" stroke-opacity="1" stroke-width="3.2"/>
<circle clip-path="url(#clip402)" cx="1705.22" cy="632.07" r="10.8" fill="#009af9" fill-rule="evenodd" fill-opacity="1" stroke="#000000" stroke-opacity="1" stroke-width="3.2"/>
<circle clip-path="url(#clip402)" cx="1707.32" cy="729.833" r="10.8" fill="#009af9" fill-rule="evenodd" fill-opacity="1" stroke="#000000" stroke-opacity="1" stroke-width="3.2"/>
<circle clip-path="url(#clip402)" cx="1940.26" cy="332.266" r="10.8" fill="#009af9" fill-rule="evenodd" fill-opacity="1" stroke="#000000" stroke-opacity="1" stroke-width="3.2"/>
<circle clip-path="url(#clip402)" cx="1576.98" cy="579.184" r="10.8" fill="#009af9" fill-rule="evenodd" fill-opacity="1" stroke="#000000" stroke-opacity="1" stroke-width="3.2"/>
<circle clip-path="url(#clip402)" cx="1996.11" cy="669.107" r="10.8" fill="#009af9" fill-rule="evenodd" fill-opacity="1" stroke="#000000" stroke-opacity="1" stroke-width="3.2"/>
<circle clip-path="url(#clip402)" cx="1508.95" cy="845.572" r="10.8" fill="#009af9" fill-rule="evenodd" fill-opacity="1" stroke="#000000" stroke-opacity="1" stroke-width="3.2"/>
<circle clip-path="url(#clip402)" cx="2036.07" cy="348.626" r="10.8" fill="#009af9" fill-rule="evenodd" fill-opacity="1" stroke="#000000" stroke-opacity="1" stroke-width="3.2"/>
<circle clip-path="url(#clip402)" cx="2054.01" cy="345.475" r="10.8" fill="#009af9" fill-rule="evenodd" fill-opacity="1" stroke="#000000" stroke-opacity="1" stroke-width="3.2"/>
<circle clip-path="url(#clip402)" cx="2046.05" cy="450.983" r="10.8" fill="#009af9" fill-rule="evenodd" fill-opacity="1" stroke="#000000" stroke-opacity="1" stroke-width="3.2"/>
<circle clip-path="url(#clip402)" cx="1529.58" cy="889.693" r="10.8" fill="#009af9" fill-rule="evenodd" fill-opacity="1" stroke="#000000" stroke-opacity="1" stroke-width="3.2"/>
<circle clip-path="url(#clip402)" cx="1783.8" cy="546.576" r="10.8" fill="#009af9" fill-rule="evenodd" fill-opacity="1" stroke="#000000" stroke-opacity="1" stroke-width="3.2"/>
<circle clip-path="url(#clip402)" cx="1711.27" cy="441.625" r="10.8" fill="#009af9" fill-rule="evenodd" fill-opacity="1" stroke="#000000" stroke-opacity="1" stroke-width="3.2"/>
<circle clip-path="url(#clip402)" cx="1925.24" cy="369.708" r="10.8" fill="#009af9" fill-rule="evenodd" fill-opacity="1" stroke="#000000" stroke-opacity="1" stroke-width="3.2"/>
<circle clip-path="url(#clip402)" cx="1910.36" cy="456.981" r="10.8" fill="#009af9" fill-rule="evenodd" fill-opacity="1" stroke="#000000" stroke-opacity="1" stroke-width="3.2"/>
<circle clip-path="url(#clip402)" cx="2032.54" cy="439.074" r="10.8" fill="#009af9" fill-rule="evenodd" fill-opacity="1" stroke="#000000" stroke-opacity="1" stroke-width="3.2"/>
<circle clip-path="url(#clip402)" cx="1880.69" cy="557.756" r="10.8" fill="#009af9" fill-rule="evenodd" fill-opacity="1" stroke="#000000" stroke-opacity="1" stroke-width="3.2"/>
<circle clip-path="url(#clip402)" cx="2041.92" cy="283.099" r="10.8" fill="#009af9" fill-rule="evenodd" fill-opacity="1" stroke="#000000" stroke-opacity="1" stroke-width="3.2"/>
<circle clip-path="url(#clip402)" cx="1309.06" cy="894.045" r="10.8" fill="#009af9" fill-rule="evenodd" fill-opacity="1" stroke="#000000" stroke-opacity="1" stroke-width="3.2"/>
<circle clip-path="url(#clip402)" cx="1935.49" cy="344.222" r="10.8" fill="#009af9" fill-rule="evenodd" fill-opacity="1" stroke="#000000" stroke-opacity="1" stroke-width="3.2"/>
<circle clip-path="url(#clip402)" cx="2082.94" cy="372.203" r="10.8" fill="#009af9" fill-rule="evenodd" fill-opacity="1" stroke="#000000" stroke-opacity="1" stroke-width="3.2"/>
<circle clip-path="url(#clip402)" cx="1986.15" cy="441.133" r="10.8" fill="#009af9" fill-rule="evenodd" fill-opacity="1" stroke="#000000" stroke-opacity="1" stroke-width="3.2"/>
<circle clip-path="url(#clip402)" cx="1978.45" cy="367.704" r="10.8" fill="#009af9" fill-rule="evenodd" fill-opacity="1" stroke="#000000" stroke-opacity="1" stroke-width="3.2"/>
<circle clip-path="url(#clip402)" cx="2087.15" cy="400.309" r="10.8" fill="#009af9" fill-rule="evenodd" fill-opacity="1" stroke="#000000" stroke-opacity="1" stroke-width="3.2"/>
<circle clip-path="url(#clip402)" cx="1414.87" cy="1009.54" r="10.8" fill="#009af9" fill-rule="evenodd" fill-opacity="1" stroke="#000000" stroke-opacity="1" stroke-width="3.2"/>
<circle clip-path="url(#clip402)" cx="1491.97" cy="918.234" r="10.8" fill="#009af9" fill-rule="evenodd" fill-opacity="1" stroke="#000000" stroke-opacity="1" stroke-width="3.2"/>
<circle clip-path="url(#clip402)" cx="2091.73" cy="380.086" r="10.8" fill="#009af9" fill-rule="evenodd" fill-opacity="1" stroke="#000000" stroke-opacity="1" stroke-width="3.2"/>
<circle clip-path="url(#clip402)" cx="1330.97" cy="1017.47" r="10.8" fill="#009af9" fill-rule="evenodd" fill-opacity="1" stroke="#000000" stroke-opacity="1" stroke-width="3.2"/>
<circle clip-path="url(#clip402)" cx="2105.37" cy="481.383" r="10.8" fill="#009af9" fill-rule="evenodd" fill-opacity="1" stroke="#000000" stroke-opacity="1" stroke-width="3.2"/>
<circle clip-path="url(#clip402)" cx="2036.55" cy="587.109" r="10.8" fill="#009af9" fill-rule="evenodd" fill-opacity="1" stroke="#000000" stroke-opacity="1" stroke-width="3.2"/>
<circle clip-path="url(#clip402)" cx="2039.23" cy="679.82" r="10.8" fill="#009af9" fill-rule="evenodd" fill-opacity="1" stroke="#000000" stroke-opacity="1" stroke-width="3.2"/>
<circle clip-path="url(#clip402)" cx="1652.3" cy="520.866" r="10.8" fill="#009af9" fill-rule="evenodd" fill-opacity="1" stroke="#000000" stroke-opacity="1" stroke-width="3.2"/>
<circle clip-path="url(#clip402)" cx="1391.89" cy="1032.5" r="10.8" fill="#009af9" fill-rule="evenodd" fill-opacity="1" stroke="#000000" stroke-opacity="1" stroke-width="3.2"/>
<circle clip-path="url(#clip402)" cx="1476.06" cy="975.67" r="10.8" fill="#009af9" fill-rule="evenodd" fill-opacity="1" stroke="#000000" stroke-opacity="1" stroke-width="3.2"/>
<circle clip-path="url(#clip402)" cx="1946.16" cy="625.249" r="10.8" fill="#009af9" fill-rule="evenodd" fill-opacity="1" stroke="#000000" stroke-opacity="1" stroke-width="3.2"/>
<circle clip-path="url(#clip402)" cx="2056.44" cy="546.289" r="10.8" fill="#009af9" fill-rule="evenodd" fill-opacity="1" stroke="#000000" stroke-opacity="1" stroke-width="3.2"/>
<circle clip-path="url(#clip402)" cx="2038.62" cy="368.114" r="10.8" fill="#009af9" fill-rule="evenodd" fill-opacity="1" stroke="#000000" stroke-opacity="1" stroke-width="3.2"/>
<circle clip-path="url(#clip402)" cx="1546.55" cy="464.843" r="10.8" fill="#009af9" fill-rule="evenodd" fill-opacity="1" stroke="#000000" stroke-opacity="1" stroke-width="3.2"/>
<circle clip-path="url(#clip402)" cx="2037.61" cy="512.983" r="10.8" fill="#009af9" fill-rule="evenodd" fill-opacity="1" stroke="#000000" stroke-opacity="1" stroke-width="3.2"/>
<circle clip-path="url(#clip402)" cx="1764.25" cy="543.567" r="10.8" fill="#009af9" fill-rule="evenodd" fill-opacity="1" stroke="#000000" stroke-opacity="1" stroke-width="3.2"/>
<circle clip-path="url(#clip402)" cx="2119.6" cy="398.34" r="10.8" fill="#009af9" fill-rule="evenodd" fill-opacity="1" stroke="#000000" stroke-opacity="1" stroke-width="3.2"/>
<circle clip-path="url(#clip402)" cx="1923.45" cy="351.178" r="10.8" fill="#009af9" fill-rule="evenodd" fill-opacity="1" stroke="#000000" stroke-opacity="1" stroke-width="3.2"/>
<circle clip-path="url(#clip402)" cx="1129.6" cy="1069.37" r="10.8" fill="#009af9" fill-rule="evenodd" fill-opacity="1" stroke="#000000" stroke-opacity="1" stroke-width="3.2"/>
<circle clip-path="url(#clip402)" cx="2216.37" cy="701.743" r="10.8" fill="#009af9" fill-rule="evenodd" fill-opacity="1" stroke="#000000" stroke-opacity="1" stroke-width="3.2"/>
<circle clip-path="url(#clip402)" cx="2200.2" cy="622.809" r="10.8" fill="#009af9" fill-rule="evenodd" fill-opacity="1" stroke="#000000" stroke-opacity="1" stroke-width="3.2"/>
<circle clip-path="url(#clip402)" cx="1846.26" cy="545.213" r="10.8" fill="#009af9" fill-rule="evenodd" fill-opacity="1" stroke="#000000" stroke-opacity="1" stroke-width="3.2"/>
<circle clip-path="url(#clip402)" cx="1080.26" cy="967.792" r="10.8" fill="#009af9" fill-rule="evenodd" fill-opacity="1" stroke="#000000" stroke-opacity="1" stroke-width="3.2"/>
<circle clip-path="url(#clip402)" cx="1074.39" cy="1100.57" r="10.8" fill="#009af9" fill-rule="evenodd" fill-opacity="1" stroke="#000000" stroke-opacity="1" stroke-width="3.2"/>
<circle clip-path="url(#clip402)" cx="1287.12" cy="1085.16" r="10.8" fill="#009af9" fill-rule="evenodd" fill-opacity="1" stroke="#000000" stroke-opacity="1" stroke-width="3.2"/>
<circle clip-path="url(#clip402)" cx="2039.4" cy="283.268" r="10.8" fill="#009af9" fill-rule="evenodd" fill-opacity="1" stroke="#000000" stroke-opacity="1" stroke-width="3.2"/>
<circle clip-path="url(#clip402)" cx="2157.63" cy="543.267" r="10.8" fill="#009af9" fill-rule="evenodd" fill-opacity="1" stroke="#000000" stroke-opacity="1" stroke-width="3.2"/>
<circle clip-path="url(#clip402)" cx="1364.54" cy="1042.41" r="10.8" fill="#009af9" fill-rule="evenodd" fill-opacity="1" stroke="#000000" stroke-opacity="1" stroke-width="3.2"/>
<circle clip-path="url(#clip402)" cx="1810.81" cy="518.998" r="10.8" fill="#009af9" fill-rule="evenodd" fill-opacity="1" stroke="#000000" stroke-opacity="1" stroke-width="3.2"/>
<circle clip-path="url(#clip402)" cx="1215.72" cy="1093.52" r="10.8" fill="#009af9" fill-rule="evenodd" fill-opacity="1" stroke="#000000" stroke-opacity="1" stroke-width="3.2"/>
<circle clip-path="url(#clip402)" cx="2123.99" cy="565.867" r="10.8" fill="#009af9" fill-rule="evenodd" fill-opacity="1" stroke="#000000" stroke-opacity="1" stroke-width="3.2"/>
<circle clip-path="url(#clip402)" cx="2185.13" cy="574.914" r="10.8" fill="#009af9" fill-rule="evenodd" fill-opacity="1" stroke="#000000" stroke-opacity="1" stroke-width="3.2"/>
<circle clip-path="url(#clip402)" cx="2037.84" cy="305.152" r="10.8" fill="#009af9" fill-rule="evenodd" fill-opacity="1" stroke="#000000" stroke-opacity="1" stroke-width="3.2"/>
<circle clip-path="url(#clip402)" cx="1740.1" cy="607.805" r="10.8" fill="#009af9" fill-rule="evenodd" fill-opacity="1" stroke="#000000" stroke-opacity="1" stroke-width="3.2"/>
<circle clip-path="url(#clip402)" cx="2041" cy="287.194" r="10.8" fill="#009af9" fill-rule="evenodd" fill-opacity="1" stroke="#000000" stroke-opacity="1" stroke-width="3.2"/>
<circle clip-path="url(#clip402)" cx="1918.49" cy="452.03" r="10.8" fill="#009af9" fill-rule="evenodd" fill-opacity="1" stroke="#000000" stroke-opacity="1" stroke-width="3.2"/>
<circle clip-path="url(#clip402)" cx="1892.17" cy="433.32" r="10.8" fill="#009af9" fill-rule="evenodd" fill-opacity="1" stroke="#000000" stroke-opacity="1" stroke-width="3.2"/>
<circle clip-path="url(#clip402)" cx="2047.65" cy="355.768" r="10.8" fill="#009af9" fill-rule="evenodd" fill-opacity="1" stroke="#000000" stroke-opacity="1" stroke-width="3.2"/>
<circle clip-path="url(#clip402)" cx="1867.8" cy="373.032" r="10.8" fill="#009af9" fill-rule="evenodd" fill-opacity="1" stroke="#000000" stroke-opacity="1" stroke-width="3.2"/>
<circle clip-path="url(#clip402)" cx="1979.78" cy="335.269" r="10.8" fill="#009af9" fill-rule="evenodd" fill-opacity="1" stroke="#000000" stroke-opacity="1" stroke-width="3.2"/>
<circle clip-path="url(#clip402)" cx="1581.44" cy="832.185" r="10.8" fill="#009af9" fill-rule="evenodd" fill-opacity="1" stroke="#000000" stroke-opacity="1" stroke-width="3.2"/>
<circle clip-path="url(#clip402)" cx="1496.97" cy="926.924" r="10.8" fill="#009af9" fill-rule="evenodd" fill-opacity="1" stroke="#000000" stroke-opacity="1" stroke-width="3.2"/>
<circle clip-path="url(#clip402)" cx="1762.78" cy="425.313" r="10.8" fill="#009af9" fill-rule="evenodd" fill-opacity="1" stroke="#000000" stroke-opacity="1" stroke-width="3.2"/>
<circle clip-path="url(#clip402)" cx="1866.26" cy="499.061" r="10.8" fill="#009af9" fill-rule="evenodd" fill-opacity="1" stroke="#000000" stroke-opacity="1" stroke-width="3.2"/>
<circle clip-path="url(#clip402)" cx="2084.44" cy="285.671" r="10.8" fill="#009af9" fill-rule="evenodd" fill-opacity="1" stroke="#000000" stroke-opacity="1" stroke-width="3.2"/>
<circle clip-path="url(#clip402)" cx="1982.15" cy="352.269" r="10.8" fill="#009af9" fill-rule="evenodd" fill-opacity="1" stroke="#000000" stroke-opacity="1" stroke-width="3.2"/>
<circle clip-path="url(#clip402)" cx="1890.59" cy="362.387" r="10.8" fill="#009af9" fill-rule="evenodd" fill-opacity="1" stroke="#000000" stroke-opacity="1" stroke-width="3.2"/>
<circle clip-path="url(#clip402)" cx="2086.59" cy="364.051" r="10.8" fill="#009af9" fill-rule="evenodd" fill-opacity="1" stroke="#000000" stroke-opacity="1" stroke-width="3.2"/>
<circle clip-path="url(#clip402)" cx="1266" cy="952.286" r="10.8" fill="#009af9" fill-rule="evenodd" fill-opacity="1" stroke="#000000" stroke-opacity="1" stroke-width="3.2"/>
<circle clip-path="url(#clip402)" cx="1793.56" cy="597.235" r="10.8" fill="#009af9" fill-rule="evenodd" fill-opacity="1" stroke="#000000" stroke-opacity="1" stroke-width="3.2"/>
<circle clip-path="url(#clip402)" cx="2078.61" cy="429.521" r="10.8" fill="#009af9" fill-rule="evenodd" fill-opacity="1" stroke="#000000" stroke-opacity="1" stroke-width="3.2"/>
<circle clip-path="url(#clip402)" cx="1710.49" cy="498.331" r="10.8" fill="#009af9" fill-rule="evenodd" fill-opacity="1" stroke="#000000" stroke-opacity="1" stroke-width="3.2"/>
<circle clip-path="url(#clip402)" cx="2024.14" cy="319.642" r="10.8" fill="#009af9" fill-rule="evenodd" fill-opacity="1" stroke="#000000" stroke-opacity="1" stroke-width="3.2"/>
<circle clip-path="url(#clip402)" cx="2125.77" cy="333.069" r="10.8" fill="#009af9" fill-rule="evenodd" fill-opacity="1" stroke="#000000" stroke-opacity="1" stroke-width="3.2"/>
<circle clip-path="url(#clip402)" cx="2069.42" cy="354.147" r="10.8" fill="#009af9" fill-rule="evenodd" fill-opacity="1" stroke="#000000" stroke-opacity="1" stroke-width="3.2"/>
<circle clip-path="url(#clip402)" cx="1886.36" cy="414.025" r="10.8" fill="#009af9" fill-rule="evenodd" fill-opacity="1" stroke="#000000" stroke-opacity="1" stroke-width="3.2"/>
<circle clip-path="url(#clip402)" cx="1918.09" cy="391.85" r="10.8" fill="#009af9" fill-rule="evenodd" fill-opacity="1" stroke="#000000" stroke-opacity="1" stroke-width="3.2"/>
<circle clip-path="url(#clip402)" cx="1705.34" cy="634.465" r="10.8" fill="#009af9" fill-rule="evenodd" fill-opacity="1" stroke="#000000" stroke-opacity="1" stroke-width="3.2"/>
<circle clip-path="url(#clip402)" cx="1958.3" cy="443.707" r="10.8" fill="#009af9" fill-rule="evenodd" fill-opacity="1" stroke="#000000" stroke-opacity="1" stroke-width="3.2"/>
</svg>
